LibreFranklin-BlackItalic.ufo
<glyph name="hyphen" format="2">
  <advance width="380"/>
  <unicode hex="002D"/>
  <outline>
    <contour>
      <point x="332" y="215" type="curve"/>
      <point x="345" y="307" type="line"/>
      <point x="347" y="319"/>
      <point x="338" y="333"/>
      <point x="327" y="333" type="curve"/>
      <point x="66" y="333" type="line" smooth="yes"/>
      <point x="54" y="333"/>
      <point x="50" y="331"/>
      <point x="48" y="316" type="curve"/>
      <point x="35" y="224" type="line" smooth="yes"/>
      <point x="33" y="207"/>
      <point x="41" y="193"/>
      <point x="61" y="193" type="curve"/>
      <point x="300" y="193" type="line" smooth="yes"/>
      <point x="323" y="193"/>
      <point x="329" y="195"/>
    </contour>
  </outline>
</glyph>
<glyph name="period" format="2">
  <advance width="279"/>
  <unicode hex="002E"/>
  <outline>
    <contour>
      <point x="208" y="23" type="curve"/>
      <point x="229" y="175" type="line"/>
      <point x="231" y="188"/>
      <point x="223" y="201"/>
      <point x="211" y="201" type="curve"/>
      <point x="38" y="201" type="line" smooth="yes"/>
      <point x="27" y="201"/>
      <point x="23" y="200"/>
      <point x="21" y="185" type="curve"/>
      <point x="-1" y="31" type="line" smooth="yes"/>
      <point x="-3" y="14"/>
      <point x="6" y="0"/>
      <point x="26" y="0" type="curve"/>
      <point x="176" y="0" type="line" smooth="yes"/>
      <point x="200" y="0"/>
      <point x="205" y="2"/>
    </contour>
  </outline>
</glyph>
<glyph name="two" format="2">
  <advance width="673"/>
  <unicode hex="0032"/>
  <outline>
    <contour>
      <point x="262" y="332" type="curve"/>
      <point x="74" y="193" type="line"/>
      <point x="14" y="148"/>
      <point x="12" y="141"/>
      <point x="10" y="130" type="curve"/>
      <point x="-4" y="31" type="line" smooth="yes"/>
      <point x="-7" y="11"/>
      <point x="3" y="0"/>
      <point x="23" y="0" type="curve"/>
      <point x="582" y="0" type="line" smooth="yes"/>
      <point x="599" y="0"/>
      <point x="603" y="4"/>
      <point x="605" y="16" type="curve"/>
      <point x="625" y="166" type="line" smooth="yes"/>
      <point x="627" y="180"/>
      <point x="618" y="185"/>
      <point x="604" y="185" type="curve"/>
      <point x="333" y="185" type="line" smooth="yes"/>
      <point x="324" y="185"/>
      <point x="324" y="191"/>
      <point x="335" y="198" type="curve"/>
      <point x="511" y="311" type="line" smooth="yes"/>
      <point x="613" y="377"/>
      <point x="669" y="435"/>
      <point x="669" y="540" type="curve"/>
      <point x="669" y="666"/>
      <point x="569" y="752"/>
      <point x="398" y="752" type="curve"/>
      <point x="268" y="752"/>
      <point x="154" y="692"/>
      <point x="79" y="585" type="curve"/>
      <point x="64" y="564"/>
      <point x="65" y="555"/>
      <point x="72" y="551" type="curve"/>
      <point x="214" y="472" type="line" smooth="yes"/>
      <point x="222" y="468"/>
      <point x="227" y="470"/>
      <point x="230" y="476" type="curve"/>
      <point x="272" y="548"/>
      <point x="325" y="590"/>
      <point x="380" y="590" type="curve"/>
      <point x="431" y="590"/>
      <point x="450" y="566"/>
      <point x="450" y="527" type="curve"/>
      <point x="450" y="482"/>
      <point x="416" y="446"/>
    </contour>
  </outline>
</glyph>
<glyph name="four" format="2">
	<advance width="716"/>
	<unicode hex="0034"/>
	<outline>
		<contour>
			<point x="410" y="721" type="curve"/>
			<point x="410" y="721" type="line"/>
			<point x="69" y="350" type="line" smooth="yes"/>
			<point x="44" y="320"/>
			<point x="34" y="306"/>
			<point x="32" y="291" type="curve"/>
			<point x="16" y="178" type="line" smooth="yes"/>
			<point x="14" y="166"/>
			<point x="19" y="159"/>
			<point x="36" y="159" type="curve"/>
			<point x="327" y="159" type="line" smooth="yes"/>
			<point x="335" y="159"/>
			<point x="337" y="158"/>
			<point x="336" y="151" type="curve"/>
			<point x="318" y="23" type="line" smooth="yes"/>
			<point x="316" y="6"/>
			<point x="325" y="0"/>
			<point x="345" y="0" type="curve"/>
			<point x="516" y="0" type="line" smooth="yes"/>
			<point x="539" y="0"/>
			<point x="545" y="3"/>
			<point x="548" y="23" type="curve"/>
			<point x="564" y="144" type="line" smooth="yes"/>
			<point x="565" y="154"/>
			<point x="572" y="159"/>
			<point x="579" y="159" type="curve"/>
			<point x="654" y="159" type="line" smooth="yes"/>
			<point x="671" y="159"/>
			<point x="674" y="162"/>
			<point x="676" y="175" type="curve"/>
			<point x="693" y="293" type="line" smooth="yes"/>
			<point x="695" y="307"/>
			<point x="689" y="310"/>
			<point x="675" y="310" type="curve"/>
			<point x="596" y="310" type="line" smooth="yes"/>
			<point x="590" y="310"/>
			<point x="588" y="311"/>
			<point x="589" y="317" type="curve"/>
			<point x="646" y="722" type="line" smooth="yes"/>
			<point x="648" y="735"/>
			<point x="641" y="742"/>
			<point x="629" y="742" type="curve"/>
			<point x="461" y="742" type="line" smooth="yes"/>
			<point x="434" y="742"/>
			<point x="428" y="740"/>
		</contour>
		<contour>
			<point x="348" y="310" type="curve"/>
			<point x="213" y="310" type="line"/>
			<point x="205" y="310"/>
			<point x="204" y="312"/>
			<point x="212" y="321" type="curve"/>
			<point x="377" y="510" type="line" smooth="yes"/>
			<point x="388" y="523"/>
			<point x="392" y="524"/>
			<point x="390" y="511" type="curve"/>
			<point x="363" y="323" type="line" smooth="yes"/>
			<point x="362" y="314"/>
			<point x="359" y="310"/>
		</contour>
	</outline>
</glyph>
<glyph name="six" format="2">
	<advance width="701"/>
	<unicode hex="0036"/>
	<outline>
		<contour>
			<point x="433" y="750" type="curve"/>
			<point x="433" y="750" type="line"/>
			<point x="236" y="750"/>
			<point x="79" y="607"/>
			<point x="45" y="363" type="curve"/>
			<point x="42" y="338"/>
			<point x="40" y="315"/>
			<point x="40" y="292" type="curve"/>
			<point x="40" y="111"/>
			<point x="148" y="-8"/>
			<point x="334" y="-8" type="curve"/>
			<point x="508" y="-8"/>
			<point x="671" y="98"/>
			<point x="671" y="261" type="curve"/>
			<point x="671" y="379"/>
			<point x="575" y="461"/>
			<point x="429" y="461" type="curve"/>
			<point x="377" y="461"/>
			<point x="329" y="450"/>
			<point x="292" y="432" type="curve"/>
			<point x="281" y="427"/>
			<point x="280" y="429"/>
			<point x="280" y="432" type="curve"/>
			<point x="280" y="434"/>
			<point x="280" y="437"/>
			<point x="281" y="442" type="curve"/>
			<point x="294" y="534"/>
			<point x="354" y="596"/>
			<point x="428" y="596" type="curve"/>
			<point x="471" y="596"/>
			<point x="485" y="575"/>
			<point x="502" y="544" type="curve"/>
			<point x="513" y="524"/>
			<point x="519" y="517"/>
			<point x="527" y="519" type="curve"/>
			<point x="672" y="561" type="line" smooth="yes"/>
			<point x="680" y="563"/>
			<point x="682" y="566"/>
			<point x="682" y="573" type="curve"/>
			<point x="682" y="667"/>
			<point x="558" y="750"/>
		</contour>
		<contour>
			<point x="372" y="317" type="curve"/>
			<point x="372" y="317" type="line"/>
			<point x="412" y="317"/>
			<point x="448" y="298"/>
			<point x="448" y="254" type="curve"/>
			<point x="448" y="196"/>
			<point x="394" y="136"/>
			<point x="330" y="136" type="curve"/>
			<point x="283" y="136"/>
			<point x="254" y="167"/>
			<point x="254" y="225" type="curve"/>
			<point x="254" y="254"/>
			<point x="257" y="277"/>
			<point x="274" y="288" type="curve"/>
			<point x="290" y="298"/>
			<point x="335" y="317"/>
		</contour>
	</outline>
</glyph>
<glyph name="colon" format="2">
	<advance width="279"/>
	<unicode hex="003A"/>
	<outline>
		<contour>
			<point x="254" y="351" type="curve"/>
			<point x="275" y="499" type="line"/>
			<point x="277" y="512"/>
			<point x="269" y="525"/>
			<point x="257" y="525" type="curve"/>
			<point x="84" y="525" type="line" smooth="yes"/>
			<point x="73" y="525"/>
			<point x="68" y="524"/>
			<point x="66" y="509" type="curve"/>
			<point x="45" y="360" type="line" smooth="yes"/>
			<point x="43" y="343"/>
			<point x="52" y="328"/>
			<point x="72" y="328" type="curve"/>
			<point x="222" y="328" type="line" smooth="yes"/>
			<point x="246" y="328"/>
			<point x="251" y="331"/>
		</contour>
		<contour>
			<point x="208" y="26" type="curve"/>
			<point x="229" y="174" type="line"/>
			<point x="231" y="187"/>
			<point x="223" y="200"/>
			<point x="211" y="200" type="curve"/>
			<point x="38" y="200" type="line" smooth="yes"/>
			<point x="27" y="200"/>
			<point x="23" y="199"/>
			<point x="21" y="184" type="curve"/>
			<point x="0" y="35" type="line" smooth="yes"/>
			<point x="-3" y="18"/>
			<point x="6" y="3"/>
			<point x="26" y="3" type="curve"/>
			<point x="176" y="3" type="line" smooth="yes"/>
			<point x="200" y="3"/>
			<point x="206" y="6"/>
		</contour>
	</outline>
</glyph>
<glyph name="semicolon" format="2">
	<advance width="279"/>
	<unicode hex="003B"/>
	<outline>
		<contour>
			<point x="-1" y="-169" type="curve"/>
			<point x="-1" y="-169" type="line"/>
			<point x="21" y="-169" type="line" smooth="yes"/>
			<point x="36" y="-169"/>
			<point x="54" y="-166"/>
			<point x="68" y="-151" type="curve"/>
			<point x="204" y="12" type="line" smooth="yes"/>
			<point x="207" y="17"/>
			<point x="207" y="19"/>
			<point x="208" y="26" type="curve"/>
			<point x="229" y="172" type="line" smooth="yes"/>
			<point x="231" y="185"/>
			<point x="223" y="198"/>
			<point x="211" y="198" type="curve"/>
			<point x="38" y="198" type="line" smooth="yes"/>
			<point x="27" y="198"/>
			<point x="22" y="197"/>
			<point x="20" y="182" type="curve"/>
			<point x="-1" y="31" type="line" smooth="yes"/>
			<point x="-3" y="14"/>
			<point x="6" y="0"/>
			<point x="26" y="0" type="curve"/>
			<point x="48" y="0" type="line" smooth="yes"/>
			<point x="64" y="0"/>
			<point x="59" y="-7"/>
			<point x="48" y="-27" type="curve"/>
			<point x="-20" y="-139" type="line" smooth="yes"/>
			<point x="-24" y="-151"/>
			<point x="-14" y="-169"/>
		</contour>
		<contour>
			<point x="71" y="321" type="curve"/>
			<point x="71" y="321" type="line"/>
			<point x="221" y="321" type="line" smooth="yes"/>
			<point x="245" y="321"/>
			<point x="250" y="323"/>
			<point x="253" y="344" type="curve"/>
			<point x="274" y="496" type="line" smooth="yes"/>
			<point x="276" y="509"/>
			<point x="268" y="522"/>
			<point x="256" y="522" type="curve"/>
			<point x="83" y="522" type="line" smooth="yes"/>
			<point x="72" y="522"/>
			<point x="68" y="521"/>
			<point x="66" y="506" type="curve"/>
			<point x="44" y="352" type="line" smooth="yes"/>
			<point x="42" y="335"/>
			<point x="51" y="321"/>
		</contour>
	</outline>
</glyph>
<glyph name="question" format="2">
  <advance width="545"/>
  <unicode hex="003F"/>
  <outline>
    <contour>
      <point x="323" y="23" type="curve"/>
      <point x="344" y="171" type="line"/>
      <point x="346" y="184"/>
      <point x="336" y="197"/>
      <point x="325" y="197" type="curve"/>
      <point x="152" y="197" type="line" smooth="yes"/>
      <point x="140" y="197"/>
      <point x="137" y="196"/>
      <point x="135" y="181" type="curve"/>
      <point x="114" y="31" type="line" smooth="yes"/>
      <point x="112" y="14"/>
      <point x="120" y="0"/>
      <point x="140" y="0" type="curve"/>
      <point x="291" y="0" type="line" smooth="yes"/>
      <point x="314" y="0"/>
      <point x="320" y="2"/>
    </contour>
    <contour>
      <point x="52" y="562" type="curve"/>
      <point x="176" y="534" type="line" smooth="yes"/>
      <point x="190" y="531"/>
      <point x="193" y="527"/>
      <point x="201" y="535" type="curve"/>
      <point x="228" y="590"/>
      <point x="274" y="622"/>
      <point x="320" y="622" type="curve"/>
      <point x="351" y="622"/>
      <point x="375" y="607"/>
      <point x="371" y="580" type="curve"/>
      <point x="361" y="504"/>
      <point x="204" y="470"/>
      <point x="181" y="309" type="curve"/>
      <point x="178" y="285"/>
      <point x="190" y="269"/>
      <point x="206" y="269" type="curve"/>
      <point x="311" y="269" type="line" smooth="yes"/>
      <point x="325" y="269"/>
      <point x="332" y="274"/>
      <point x="333" y="282" type="curve"/>
      <point x="353" y="419"/>
      <point x="544" y="425"/>
      <point x="565" y="569" type="curve"/>
      <point x="578" y="665"/>
      <point x="483" y="752"/>
      <point x="324" y="752" type="curve"/>
      <point x="194" y="752"/>
      <point x="99" y="700"/>
      <point x="41" y="599" type="curve"/>
      <point x="36" y="582"/>
      <point x="39" y="565"/>
    </contour>
  </outline>
</glyph>
<glyph name="G" format="2">
  <advance width="761"/>
  <unicode hex="0047"/>
  <anchor x="449" y="742" name="top"/>
  <anchor x="345" y="0" name="bottom"/>
  <outline>
    <contour>
      <point x="349" y="-10" type="curve"/>
      <point x="349" y="-10" type="line"/>
      <point x="463" y="-10"/>
      <point x="521" y="38"/>
      <point x="556" y="73" type="curve"/>
      <point x="566" y="83"/>
      <point x="575" y="85"/>
      <point x="580" y="76" type="curve"/>
      <point x="610" y="17" type="line" smooth="yes"/>
      <point x="616" y="4"/>
      <point x="623" y="0"/>
      <point x="635" y="0" type="curve"/>
      <point x="670" y="0" type="line" smooth="yes"/>
      <point x="680" y="0"/>
      <point x="687" y="5"/>
      <point x="688" y="14" type="curve"/>
      <point x="736" y="354" type="line" smooth="yes"/>
      <point x="738" y="371"/>
      <point x="735" y="375"/>
      <point x="715" y="375" type="curve"/>
      <point x="409" y="377" type="line" smooth="yes"/>
      <point x="401" y="377"/>
      <point x="398" y="373"/>
      <point x="397" y="364" type="curve"/>
      <point x="385" y="258" type="line" smooth="yes"/>
      <point x="384" y="246"/>
      <point x="386" y="242"/>
      <point x="395" y="242" type="curve"/>
      <point x="491" y="242" type="line" smooth="yes"/>
      <point x="505" y="242"/>
      <point x="507" y="237"/>
      <point x="501" y="228" type="curve"/>
      <point x="496" y="220" type="line" smooth="yes"/>
      <point x="469" y="176"/>
      <point x="431" y="146"/>
      <point x="371" y="146" type="curve"/>
      <point x="313" y="146"/>
      <point x="275" y="172"/>
      <point x="275" y="274" type="curve"/>
      <point x="275" y="413"/>
      <point x="316" y="597"/>
      <point x="443" y="597" type="curve"/>
      <point x="511" y="597"/>
      <point x="533" y="553"/>
      <point x="543" y="503" type="curve"/>
      <point x="548" y="477"/>
      <point x="551" y="471"/>
      <point x="558" y="472" type="curve"/>
      <point x="735" y="497" type="line" smooth="yes"/>
      <point x="743" y="498"/>
      <point x="744" y="506"/>
      <point x="744" y="522" type="curve"/>
      <point x="738" y="635"/>
      <point x="637" y="752"/>
      <point x="453" y="752" type="curve"/>
      <point x="210" y="752"/>
      <point x="41" y="556"/>
      <point x="41" y="308" type="curve"/>
      <point x="41" y="118"/>
      <point x="157" y="-10"/>
    </contour>
  </outline>
</glyph>
<glyph name="J" format="2">
  <advance width="467"/>
  <unicode hex="004A"/>
  <anchor x="310" y="742" name="top"/>
  <outline>
    <contour>
      <point x="412" y="206" type="curve"/>
      <point x="412" y="206" type="line"/>
      <point x="483" y="715" type="line" smooth="yes"/>
      <point x="486" y="733"/>
      <point x="483" y="742"/>
      <point x="471" y="742" type="curve"/>
      <point x="276" y="742" type="line" smooth="yes"/>
      <point x="264" y="742"/>
      <point x="260" y="740"/>
      <point x="258" y="725" type="curve"/>
      <point x="194" y="274" type="line" smooth="yes"/>
      <point x="185" y="206"/>
      <point x="147" y="175"/>
      <point x="94" y="175" type="curve"/>
      <point x="76" y="175"/>
      <point x="60" y="177"/>
      <point x="40" y="180" type="curve"/>
      <point x="29" y="182"/>
      <point x="24" y="177"/>
      <point x="21" y="162" type="curve"/>
      <point x="-7" y="31" type="line" smooth="yes"/>
      <point x="-10" y="16"/>
      <point x="-3" y="12"/>
      <point x="23" y="5" type="curve"/>
      <point x="64" y="-6"/>
      <point x="106" y="-10"/>
      <point x="151" y="-10" type="curve"/>
      <point x="303" y="-10"/>
      <point x="389" y="42"/>
    </contour>
  </outline>
</glyph>
<glyph name="N" format="2">
  <advance width="761"/>
  <unicode hex="004E"/>
  <anchor x="448" y="742" name="top"/>
  <anchor x="344" y="0" name="bottom"/>
  <outline>
    <contour>
      <point x="762" y="742" type="curve"/>
      <point x="612" y="742" type="line"/>
      <point x="597" y="742"/>
      <point x="594" y="740"/>
      <point x="592" y="727" type="curve"/>
      <point x="545" y="392" type="line" smooth="yes"/>
      <point x="543" y="377"/>
      <point x="533" y="375"/>
      <point x="526" y="387" type="curve"/>
      <point x="331" y="719" type="line" smooth="yes"/>
      <point x="323" y="733"/>
      <point x="316" y="742"/>
      <point x="300" y="742" type="curve"/>
      <point x="137" y="742" type="line" smooth="yes"/>
      <point x="122" y="742"/>
      <point x="119" y="740"/>
      <point x="117" y="725" type="curve"/>
      <point x="18" y="26" type="line" smooth="yes"/>
      <point x="16" y="11"/>
      <point x="19" y="0"/>
      <point x="34" y="0" type="curve"/>
      <point x="178" y="0" type="line" smooth="yes"/>
      <point x="196" y="0"/>
      <point x="200" y="3"/>
      <point x="202" y="19" type="curve"/>
      <point x="254" y="385" type="line" smooth="yes"/>
      <point x="256" y="400"/>
      <point x="263" y="400"/>
      <point x="267" y="393" type="curve"/>
      <point x="492" y="20" type="line" smooth="yes"/>
      <point x="500" y="7"/>
      <point x="506" y="0"/>
      <point x="516" y="0" type="curve"/>
      <point x="653" y="0" type="line" smooth="yes"/>
      <point x="666" y="0"/>
      <point x="672" y="2"/>
      <point x="673" y="12" type="curve"/>
      <point x="774" y="726" type="line" smooth="yes"/>
      <point x="775" y="736"/>
      <point x="772" y="742"/>
    </contour>
  </outline>
</glyph>
<glyph name="O" format="2">
  <advance width="780"/>
  <unicode hex="004F"/>
  <anchor x="447" y="10" name="ogonek"/>
  <anchor x="457" y="742" name="top"/>
  <anchor x="495" y="740" name="topright"/>
  <anchor x="355" y="0" name="bottom"/>
  <outline>
    <contour>
      <point x="360" y="-10" type="curve"/>
      <point x="360" y="-10" type="line"/>
      <point x="574" y="-10"/>
      <point x="730" y="133"/>
      <point x="762" y="358" type="curve"/>
      <point x="766" y="383"/>
      <point x="767" y="408"/>
      <point x="767" y="431" type="curve"/>
      <point x="767" y="627"/>
      <point x="647" y="752"/>
      <point x="451" y="752" type="curve"/>
      <point x="238" y="752"/>
      <point x="79" y="607"/>
      <point x="47" y="380" type="curve"/>
      <point x="43" y="354"/>
      <point x="42" y="329"/>
      <point x="42" y="306" type="curve"/>
      <point x="42" y="112"/>
      <point x="160" y="-10"/>
    </contour>
    <contour>
      <point x="366" y="146" type="curve"/>
      <point x="366" y="146" type="line"/>
      <point x="302" y="146"/>
      <point x="274" y="177"/>
      <point x="274" y="260" type="curve"/>
      <point x="274" y="286"/>
      <point x="277" y="318"/>
      <point x="282" y="355" type="curve"/>
      <point x="306" y="525"/>
      <point x="355" y="598"/>
      <point x="446" y="598" type="curve"/>
      <point x="508" y="598"/>
      <point x="535" y="563"/>
      <point x="535" y="476" type="curve"/>
      <point x="535" y="448"/>
      <point x="532" y="415"/>
      <point x="527" y="377" type="curve"/>
      <point x="504" y="212"/>
      <point x="457" y="146"/>
    </contour>
  </outline>
</glyph>
<glyph name="P" format="2">
  <advance width="731"/>
  <unicode hex="0050"/>
  <outline>
    <contour>
      <point x="295" y="266" type="curve"/>
      <point x="432" y="266" type="line"/>
      <point x="605" y="266"/>
      <point x="738" y="364"/>
      <point x="738" y="527" type="curve"/>
      <point x="738" y="669"/>
      <point x="616" y="742"/>
      <point x="465" y="742" type="curve"/>
      <point x="134" y="742" type="line" smooth="yes"/>
      <point x="122" y="742"/>
      <point x="119" y="740"/>
      <point x="117" y="725" type="curve"/>
      <point x="19" y="31" type="line" smooth="yes"/>
      <point x="15" y="9"/>
      <point x="19" y="0"/>
      <point x="36" y="0" type="curve"/>
      <point x="213" y="0" type="line" smooth="yes"/>
      <point x="236" y="0"/>
      <point x="242" y="2"/>
      <point x="245" y="23" type="curve"/>
      <point x="277" y="249" type="line" smooth="yes"/>
      <point x="278" y="259"/>
      <point x="281" y="266"/>
    </contour>
    <contour>
      <point x="507" y="526" type="curve"/>
      <point x="507" y="526" type="line"/>
      <point x="507" y="478"/>
      <point x="466" y="426"/>
      <point x="413" y="426" type="curve"/>
      <point x="315" y="426" type="line" smooth="yes"/>
      <point x="306" y="426"/>
      <point x="302" y="427"/>
      <point x="304" y="442" type="curve"/>
      <point x="320" y="560" type="line" smooth="yes"/>
      <point x="322" y="575"/>
      <point x="327" y="582"/>
      <point x="344" y="582" type="curve"/>
      <point x="437" y="582" type="line" smooth="yes"/>
      <point x="479" y="582"/>
      <point x="507" y="562"/>
    </contour>
  </outline>
</glyph>
<glyph name="T" format="2">
	<advance width="704"/>
	<unicode hex="0054"/>
	<anchor x="419" y="742" name="top"/>
	<anchor x="315" y="0" name="bottom"/>
	<outline>
		<contour>
			<point x="93" y="725" type="curve"/>
			<point x="75" y="597" type="line"/>
			<point x="73" y="585"/>
			<point x="78" y="581"/>
			<point x="92" y="581" type="curve"/>
			<point x="271" y="581" type="line" smooth="yes"/>
			<point x="279" y="581"/>
			<point x="282" y="578"/>
			<point x="281" y="569" type="curve"/>
			<point x="204" y="26" type="line" smooth="yes"/>
			<point x="201" y="7"/>
			<point x="205" y="0"/>
			<point x="223" y="0" type="curve"/>
			<point x="411" y="0" type="line" smooth="yes"/>
			<point x="422" y="0"/>
			<point x="428" y="4"/>
			<point x="430" y="19" type="curve"/>
			<point x="507" y="565" type="line" smooth="yes"/>
			<point x="509" y="577"/>
			<point x="511" y="581"/>
			<point x="525" y="581" type="curve"/>
			<point x="702" y="581" type="line" smooth="yes"/>
			<point x="715" y="581"/>
			<point x="720" y="583"/>
			<point x="722" y="594" type="curve"/>
			<point x="740" y="725" type="line" smooth="yes"/>
			<point x="742" y="737"/>
			<point x="741" y="742"/>
			<point x="724" y="742" type="curve"/>
			<point x="116" y="742" type="line" smooth="yes"/>
			<point x="99" y="742"/>
			<point x="95" y="738"/>
		</contour>
	</outline>
</glyph>
<glyph name="Z" format="2">
  <advance width="714"/>
  <unicode hex="005A"/>
  <anchor x="438" y="742" name="top"/>
  <anchor x="310" y="0" name="bottom"/>
  <outline>
    <contour>
      <point x="19" y="0" type="curve"/>
      <point x="19" y="0" type="line"/>
      <point x="620" y="0" type="line" smooth="yes"/>
      <point x="637" y="0"/>
      <point x="640" y="4"/>
      <point x="642" y="16" type="curve"/>
      <point x="661" y="149" type="line" smooth="yes"/>
      <point x="663" y="163"/>
      <point x="660" y="166"/>
      <point x="646" y="166" type="curve"/>
      <point x="337" y="166" type="line" smooth="yes"/>
      <point x="331" y="166"/>
      <point x="330" y="170"/>
      <point x="335" y="175" type="curve"/>
      <point x="721" y="625" type="line" smooth="yes"/>
      <point x="734" y="643"/>
      <point x="737" y="650"/>
      <point x="739" y="665" type="curve"/>
      <point x="747" y="720" type="line" smooth="yes"/>
      <point x="749" y="733"/>
      <point x="745" y="742"/>
      <point x="733" y="742" type="curve"/>
      <point x="140" y="742" type="line" smooth="yes"/>
      <point x="129" y="742"/>
      <point x="126" y="740"/>
      <point x="124" y="727" type="curve"/>
      <point x="107" y="607" type="line" smooth="yes"/>
      <point x="105" y="589"/>
      <point x="112" y="577"/>
      <point x="129" y="577" type="curve"/>
      <point x="394" y="577" type="line" smooth="yes"/>
      <point x="408" y="577"/>
      <point x="404" y="577"/>
      <point x="395" y="566" type="curve"/>
      <point x="23" y="126" type="line" smooth="yes"/>
      <point x="5" y="104"/>
      <point x="1" y="95"/>
      <point x="-1" y="76" type="curve"/>
      <point x="-7" y="26" type="line" smooth="yes"/>
      <point x="-9" y="6"/>
      <point x="-1" y="0"/>
    </contour>
  </outline>
</glyph>
<glyph name="asciicircum" format="2">
	<advance width="475"/>
	<unicode hex="005E"/>
	<outline>
		<contour>
			<point x="258" y="324" type="curve"/>
			<point x="310" y="134" type="line"/>
			<point x="310" y="125"/>
			<point x="325" y="120"/>
			<point x="337" y="120" type="curve"/>
			<point x="416" y="120" type="line" smooth="yes"/>
			<point x="430" y="120"/>
			<point x="432" y="121"/>
			<point x="428" y="136" type="curve"/>
			<point x="321" y="500" type="line" smooth="yes"/>
			<point x="308" y="548"/>
			<point x="241" y="555"/>
			<point x="214" y="509" type="curve"/>
			<point x="7" y="149" type="line" smooth="yes"/>
			<point x="1" y="134"/>
			<point x="9" y="120"/>
			<point x="21" y="120" type="curve"/>
			<point x="104" y="120" type="line" smooth="yes"/>
			<point x="117" y="120"/>
			<point x="123" y="115"/>
			<point x="128" y="124" type="curve"/>
			<point x="234" y="314" type="line" smooth="yes"/>
			<point x="240" y="328"/>
			<point x="254" y="338"/>
		</contour>
	</outline>
</glyph>
<glyph name="a" format="2">
  <advance width="573"/>
  <unicode hex="0061"/>
  <guideline x="347" y="102" angle="90"/>
  <anchor x="473" y="10" name="ogonek"/>
  <anchor x="250" y="0" name="bottom"/>
  <anchor x="334" y="530" name="top"/>
  <outline>
    <contour>
      <point x="296" y="40" type="curve"/>
      <point x="296" y="40" type="line"/>
      <point x="312" y="57"/>
      <point x="321" y="57"/>
      <point x="322" y="44" type="curve"/>
      <point x="323" y="32" type="line" smooth="yes"/>
      <point x="325" y="13"/>
      <point x="326" y="0"/>
      <point x="344" y="0" type="curve"/>
      <point x="481" y="0" type="line" smooth="yes"/>
      <point x="500" y="0"/>
      <point x="500" y="1"/>
      <point x="503" y="21" type="curve"/>
      <point x="552" y="369" type="line" smooth="yes"/>
      <point x="553" y="379"/>
      <point x="554" y="389"/>
      <point x="554" y="398" type="curve"/>
      <point x="554" y="481"/>
      <point x="498" y="540"/>
      <point x="328" y="540" type="curve"/>
      <point x="201" y="540"/>
      <point x="109" y="511"/>
      <point x="66" y="432" type="curve"/>
      <point x="54" y="401"/>
      <point x="63" y="392"/>
      <point x="74" y="390" type="curve"/>
      <point x="201" y="364" type="line" smooth="yes"/>
      <point x="218" y="361"/>
      <point x="223" y="364"/>
      <point x="227" y="372" type="curve"/>
      <point x="248" y="415"/>
      <point x="286" y="421"/>
      <point x="318" y="421" type="curve"/>
      <point x="349" y="421"/>
      <point x="363" y="410"/>
      <point x="363" y="383" type="curve"/>
      <point x="363" y="379"/>
      <point x="363" y="374"/>
      <point x="362" y="369" type="curve"/>
      <point x="359" y="352" type="line" smooth="yes"/>
      <point x="357" y="339"/>
      <point x="349" y="332"/>
      <point x="337" y="332" type="curve"/>
      <point x="330" y="332" type="line" smooth="yes"/>
      <point x="190" y="332"/>
      <point x="-1" y="280"/>
      <point x="-1" y="123" type="curve"/>
      <point x="-1" y="47"/>
      <point x="53" y="-10"/>
      <point x="147" y="-10" type="curve"/>
      <point x="205" y="-10"/>
      <point x="262" y="4"/>
    </contour>
    <contour>
      <point x="342" y="230" type="curve"/>
      <point x="335" y="177" type="line"/>
      <point x="333" y="162"/>
      <point x="320" y="147"/>
      <point x="307" y="136" type="curve"/>
      <point x="294" y="125"/>
      <point x="270" y="116"/>
      <point x="240" y="116" type="curve"/>
      <point x="211" y="116"/>
      <point x="196" y="134"/>
      <point x="196" y="155" type="curve"/>
      <point x="196" y="216"/>
      <point x="278" y="238"/>
      <point x="319" y="241" type="curve"/>
      <point x="333" y="242" type="line" smooth="yes"/>
      <point x="345" y="243"/>
      <point x="344" y="242"/>
    </contour>
  </outline>
</glyph>
<glyph name="b" format="2">
  <advance width="616"/>
  <unicode hex="0062"/>
  <outline>
    <contour>
      <point x="35" y="0" type="curve"/>
      <point x="129" y="0" type="line"/>
      <point x="142" y="0"/>
      <point x="149" y="4"/>
      <point x="155" y="21" type="curve"/>
      <point x="171" y="65" type="line" smooth="yes"/>
      <point x="178" y="84"/>
      <point x="187" y="81"/>
      <point x="191" y="74" type="curve"/>
      <point x="224" y="20"/>
      <point x="277" y="-10"/>
      <point x="335" y="-10" type="curve"/>
      <point x="522" y="-10"/>
      <point x="597" y="170"/>
      <point x="597" y="326" type="curve"/>
      <point x="597" y="459"/>
      <point x="533" y="540"/>
      <point x="418" y="540" type="curve"/>
      <point x="377" y="540"/>
      <point x="336" y="531"/>
      <point x="289" y="496" type="curve"/>
      <point x="277" y="487"/>
      <point x="272" y="489"/>
      <point x="274" y="500" type="curve"/>
      <point x="304" y="715" type="line" smooth="yes"/>
      <point x="306" y="728"/>
      <point x="306" y="742"/>
      <point x="294" y="742" type="curve"/>
      <point x="123" y="742" type="line" smooth="yes"/>
      <point x="112" y="742"/>
      <point x="108" y="740"/>
      <point x="106" y="725" type="curve"/>
      <point x="8" y="31" type="line" smooth="yes"/>
      <point x="6" y="14"/>
      <point x="14" y="0"/>
    </contour>
    <contour>
      <point x="229" y="179" type="curve"/>
      <point x="258" y="374" type="line"/>
      <point x="282" y="399"/>
      <point x="310" y="418"/>
      <point x="345" y="418" type="curve"/>
      <point x="380" y="418"/>
      <point x="398" y="400"/>
      <point x="398" y="341" type="curve"/>
      <point x="398" y="267"/>
      <point x="378" y="107"/>
      <point x="282" y="107" type="curve"/>
      <point x="244" y="107"/>
      <point x="222" y="129"/>
    </contour>
  </outline>
</glyph>
<glyph name="h" format="2">
  <advance width="605"/>
  <unicode hex="0068"/>
  <anchor x="482" y="530" name="top"/>
  <anchor x="269" y="0" name="bottom"/>
  <outline>
    <contour>
      <point x="35" y="0" type="curve"/>
      <point x="176" y="0" type="line"/>
      <point x="200" y="0"/>
      <point x="205" y="2"/>
      <point x="208" y="23" type="curve"/>
      <point x="255" y="344" type="line"/>
      <point x="279" y="378"/>
      <point x="308" y="399"/>
      <point x="343" y="399" type="curve"/>
      <point x="368" y="399"/>
      <point x="382" y="390"/>
      <point x="382" y="367" type="curve"/>
      <point x="382" y="364"/>
      <point x="382" y="361"/>
      <point x="381" y="357" type="curve"/>
      <point x="335" y="31" type="line" smooth="yes"/>
      <point x="332" y="12"/>
      <point x="341" y="0"/>
      <point x="358" y="0" type="curve"/>
      <point x="505" y="0" type="line" smooth="yes"/>
      <point x="526" y="0"/>
      <point x="531" y="4"/>
      <point x="534" y="24" type="curve"/>
      <point x="583" y="369" type="line" smooth="yes"/>
      <point x="585" y="381"/>
      <point x="586" y="392"/>
      <point x="586" y="403" type="curve"/>
      <point x="586" y="488"/>
      <point x="534" y="540"/>
      <point x="443" y="540" type="curve"/>
      <point x="394" y="540"/>
      <point x="344" y="527"/>
      <point x="278" y="477" type="curve"/>
      <point x="271" y="472"/>
      <point x="268" y="473"/>
      <point x="270" y="485" type="curve"/>
      <point x="303" y="720" type="line" smooth="yes"/>
      <point x="305" y="736"/>
      <point x="301" y="742"/>
      <point x="289" y="742" type="curve"/>
      <point x="129" y="742" type="line" smooth="yes"/>
      <point x="117" y="742"/>
      <point x="109" y="739"/>
      <point x="107" y="725" type="curve"/>
      <point x="9" y="31" type="line" smooth="yes"/>
      <point x="7" y="13"/>
      <point x="16" y="0"/>
    </contour>
  </outline>
</glyph>
<glyph name="p" format="2">
  <advance width="617"/>
  <unicode hex="0070"/>
  <outline>
    <contour>
      <point x="-5" y="-165" type="curve"/>
      <point x="-5" y="-165" type="line"/>
      <point x="167" y="-165" type="line" smooth="yes"/>
      <point x="179" y="-165"/>
      <point x="181" y="-164"/>
      <point x="183" y="-151" type="curve"/>
      <point x="208" y="30" type="line" smooth="yes"/>
      <point x="211" y="50"/>
      <point x="219" y="67"/>
      <point x="232" y="51" type="curve"/>
      <point x="266" y="9"/>
      <point x="310" y="-10"/>
      <point x="359" y="-10" type="curve"/>
      <point x="538" y="-10"/>
      <point x="597" y="182"/>
      <point x="597" y="329" type="curve"/>
      <point x="597" y="471"/>
      <point x="527" y="540"/>
      <point x="428" y="540" type="curve"/>
      <point x="370" y="540"/>
      <point x="335" y="523"/>
      <point x="290" y="492" type="curve"/>
      <point x="280" y="485"/>
      <point x="269" y="482"/>
      <point x="270" y="490" type="curve"/>
      <point x="273" y="511" type="line" smooth="yes"/>
      <point x="275" y="528"/>
      <point x="268" y="530"/>
      <point x="249" y="530" type="curve"/>
      <point x="101" y="530" type="line" smooth="yes"/>
      <point x="80" y="530"/>
      <point x="78" y="527"/>
      <point x="75" y="510" type="curve"/>
      <point x="-15" y="-137" type="line" smooth="yes"/>
      <point x="-18" y="-152"/>
      <point x="-16" y="-165"/>
    </contour>
    <contour>
      <point x="281" y="111" type="curve"/>
      <point x="281" y="111" type="line"/>
      <point x="253" y="111"/>
      <point x="236" y="122"/>
      <point x="222" y="146" type="curve"/>
      <point x="254" y="357" type="line" smooth="yes"/>
      <point x="258" y="389"/>
      <point x="298" y="419"/>
      <point x="341" y="419" type="curve"/>
      <point x="378" y="419"/>
      <point x="399" y="404"/>
      <point x="399" y="345" type="curve"/>
      <point x="399" y="269"/>
      <point x="379" y="111"/>
    </contour>
  </outline>
</glyph>
<glyph name="y" format="2">
  <advance width="589"/>
  <unicode hex="0079"/>
  <anchor x="363" y="530" name="top"/>
  <anchor x="434" y="0" name="bottom"/>
  <outline>
    <contour>
      <point x="34" y="-165" type="curve"/>
      <point x="34" y="-165" type="line"/>
      <point x="186" y="-165"/>
      <point x="250" y="-130"/>
      <point x="343" y="36" type="curve"/>
      <point x="605" y="506" type="line" smooth="yes"/>
      <point x="613" y="520"/>
      <point x="613" y="530"/>
      <point x="597" y="530" type="curve"/>
      <point x="485" y="530" type="line" smooth="yes"/>
      <point x="473" y="530"/>
      <point x="463" y="524"/>
      <point x="454" y="505" type="curve"/>
      <point x="340" y="277" type="line" smooth="yes"/>
      <point x="331" y="259"/>
      <point x="322" y="258"/>
      <point x="318" y="275" type="curve"/>
      <point x="266" y="515" type="line" smooth="yes"/>
      <point x="264" y="526"/>
      <point x="257" y="530"/>
      <point x="245" y="530" type="curve"/>
      <point x="62" y="530" type="line" smooth="yes"/>
      <point x="46" y="530"/>
      <point x="39" y="519"/>
      <point x="45" y="496" type="curve"/>
      <point x="174" y="26" type="line" smooth="yes"/>
      <point x="181" y="2"/>
      <point x="155" y="-22"/>
      <point x="109" y="-22" type="curve"/>
      <point x="38" y="-22" type="line" smooth="yes"/>
      <point x="16" y="-22"/>
      <point x="3" y="-30"/>
      <point x="2" y="-38" type="curve"/>
      <point x="-12" y="-140" type="line" smooth="yes"/>
      <point x="-15" y="-159"/>
      <point x="-4" y="-165"/>
    </contour>
  </outline>
</glyph>
<glyph name="sterling" format="2">
  <advance width="664"/>
  <unicode hex="00A3"/>
  <outline>
    <contour>
      <point x="-3" y="0" type="curve"/>
      <point x="-3" y="0" type="line"/>
      <point x="363" y="0" type="line" smooth="yes"/>
      <point x="488" y="0"/>
      <point x="587" y="63"/>
      <point x="632" y="180" type="curve"/>
      <point x="637" y="198"/>
      <point x="628" y="212"/>
      <point x="613" y="215" type="curve"/>
      <point x="493" y="239" type="line" smooth="yes"/>
      <point x="480" y="242"/>
      <point x="476" y="245"/>
      <point x="470" y="240" type="curve"/>
      <point x="448" y="188"/>
      <point x="415" y="164"/>
      <point x="362" y="164" type="curve"/>
      <point x="282" y="164" type="line" smooth="yes"/>
      <point x="271" y="164"/>
      <point x="274" y="165"/>
      <point x="287" y="171" type="curve"/>
      <point x="307" y="193"/>
      <point x="322" y="211"/>
      <point x="335" y="232" type="curve"/>
      <point x="345" y="261"/>
      <point x="352" y="288"/>
      <point x="357" y="321" type="curve"/>
      <point x="359" y="333"/>
      <point x="367" y="343"/>
      <point x="379" y="343" type="curve"/>
      <point x="474" y="343" type="line" smooth="yes"/>
      <point x="481" y="343"/>
      <point x="481" y="341"/>
      <point x="482" y="349" type="curve"/>
      <point x="493" y="429" type="line" smooth="yes"/>
      <point x="494" y="436"/>
      <point x="487" y="446"/>
      <point x="479" y="446" type="curve"/>
      <point x="367" y="446" type="line" smooth="yes"/>
      <point x="359" y="446"/>
      <point x="357" y="445"/>
      <point x="357" y="447" type="curve"/>
      <point x="357" y="487"/>
      <point x="358" y="512"/>
      <point x="360" y="525" type="curve"/>
      <point x="366" y="569"/>
      <point x="393" y="598"/>
      <point x="427" y="598" type="curve"/>
      <point x="455" y="598"/>
      <point x="464" y="577"/>
      <point x="473" y="555" type="curve"/>
      <point x="474" y="541"/>
      <point x="485" y="532"/>
      <point x="495" y="535" type="curve"/>
      <point x="638" y="575" type="line" smooth="yes"/>
      <point x="648" y="578"/>
      <point x="649" y="580"/>
      <point x="644" y="585" type="curve"/>
      <point x="614" y="703"/>
      <point x="502" y="752"/>
      <point x="401" y="752" type="curve"/>
      <point x="269" y="752"/>
      <point x="140" y="689"/>
      <point x="130" y="552" type="curve"/>
      <point x="125" y="466" type="line" smooth="yes"/>
      <point x="124" y="456"/>
      <point x="114" y="446"/>
      <point x="105" y="446" type="curve"/>
      <point x="46" y="446" type="line" smooth="yes"/>
      <point x="38" y="446"/>
      <point x="38" y="448"/>
      <point x="37" y="440" type="curve"/>
      <point x="26" y="363" type="line" smooth="yes"/>
      <point x="25" y="354"/>
      <point x="32" y="343"/>
      <point x="40" y="343" type="curve"/>
      <point x="122" y="343" type="line" smooth="yes"/>
      <point x="129" y="343"/>
      <point x="130" y="346"/>
      <point x="132" y="343" type="curve"/>
      <point x="128" y="282"/>
      <point x="126" y="259"/>
      <point x="125" y="248" type="curve"/>
      <point x="116" y="189"/>
      <point x="77" y="163"/>
      <point x="26" y="163" type="curve"/>
      <point x="9" y="163" type="line" smooth="yes"/>
      <point x="-2" y="163"/>
      <point x="-2" y="164"/>
      <point x="-4" y="154" type="curve"/>
      <point x="-22" y="26" type="line" smooth="yes"/>
      <point x="-23" y="14"/>
      <point x="-15" y="0"/>
    </contour>
  </outline>
</glyph>
<glyph name="brokenbar" format="2">
  <advance width="245"/>
  <unicode hex="00A6"/>
  <outline>
    <contour>
      <point x="106" y="423" type="curve"/>
      <point x="199" y="423" type="line"/>
      <point x="211" y="423"/>
      <point x="215" y="424"/>
      <point x="217" y="435" type="curve"/>
      <point x="271" y="822" type="line" smooth="yes"/>
      <point x="273" y="834"/>
      <point x="263" y="847"/>
      <point x="248" y="847" type="curve"/>
      <point x="155" y="847" type="line" smooth="yes"/>
      <point x="138" y="847"/>
      <point x="134" y="847"/>
      <point x="131" y="827" type="curve"/>
      <point x="80" y="462" type="line" smooth="yes"/>
      <point x="76" y="439"/>
      <point x="86" y="423"/>
    </contour>
    <contour>
      <point x="24" y="-165" type="curve"/>
      <point x="117" y="-165" type="line"/>
      <point x="129" y="-165"/>
      <point x="133" y="-164"/>
      <point x="134" y="-153" type="curve"/>
      <point x="189" y="234" type="line" smooth="yes"/>
      <point x="190" y="246"/>
      <point x="180" y="259"/>
      <point x="165" y="259" type="curve"/>
      <point x="72" y="259" type="line" smooth="yes"/>
      <point x="55" y="259"/>
      <point x="51" y="259"/>
      <point x="48" y="239" type="curve"/>
      <point x="-3" y="-126" type="line" smooth="yes"/>
      <point x="-6" y="-149"/>
      <point x="4" y="-165"/>
    </contour>
  </outline>
</glyph>
<glyph name="degree" format="2">
  <advance width="464"/>
  <unicode hex="00B0"/>
  <outline>
    <contour>
      <point x="470" y="664" type="curve"/>
      <point x="470" y="664" type="line"/>
      <point x="486" y="775"/>
      <point x="415" y="857"/>
      <point x="307" y="857" type="curve"/>
      <point x="206" y="857"/>
      <point x="123" y="787"/>
      <point x="109" y="686" type="curve"/>
      <point x="93" y="574"/>
      <point x="163" y="493"/>
      <point x="272" y="493" type="curve"/>
      <point x="372" y="493"/>
      <point x="456" y="562"/>
    </contour>
    <contour>
      <point x="361" y="685" type="curve"/>
      <point x="361" y="685" type="line"/>
      <point x="354" y="636"/>
      <point x="317" y="599"/>
      <point x="270" y="599" type="curve"/>
      <point x="230" y="599"/>
      <point x="210" y="624"/>
      <point x="215" y="663" type="curve"/>
      <point x="221" y="711"/>
      <point x="259" y="748"/>
      <point x="306" y="748" type="curve"/>
      <point x="346" y="748"/>
      <point x="366" y="723"/>
    </contour>
  </outline>
</glyph>
<glyph name="micro" format="2">
  <advance width="601"/>
  <unicode hex="00B5"/>
  <outline>
    <contour>
      <point x="258" y="130" type="curve"/>
      <point x="258" y="130" type="line"/>
      <point x="233" y="130"/>
      <point x="219" y="142"/>
      <point x="223" y="173" type="curve"/>
      <point x="269" y="498" type="line" smooth="yes"/>
      <point x="271" y="517"/>
      <point x="263" y="530"/>
      <point x="246" y="530" type="curve"/>
      <point x="100" y="530" type="line" smooth="yes"/>
      <point x="78" y="530"/>
      <point x="73" y="526"/>
      <point x="70" y="506" type="curve"/>
      <point x="-20" y="-134" type="line" smooth="yes"/>
      <point x="-22" y="-151"/>
      <point x="-13" y="-165"/>
      <point x="7" y="-165" type="curve"/>
      <point x="147" y="-165" type="line" smooth="yes"/>
      <point x="170" y="-165"/>
      <point x="176" y="-163"/>
      <point x="179" y="-142" type="curve"/>
      <point x="195" y="-28" type="line" smooth="yes"/>
      <point x="197" y="-16"/>
      <point x="205" y="-7"/>
      <point x="223" y="-4" type="curve"/>
      <point x="255" y="8"/>
      <point x="288" y="23"/>
      <point x="318" y="61" type="curve"/>
      <point x="329" y="75"/>
      <point x="337" y="78"/>
      <point x="336" y="70" type="curve"/>
      <point x="329" y="26" type="line" smooth="yes"/>
      <point x="328" y="13"/>
      <point x="337" y="0"/>
      <point x="348" y="0" type="curve"/>
      <point x="506" y="0" type="line" smooth="yes"/>
      <point x="518" y="0"/>
      <point x="521" y="2"/>
      <point x="523" y="16" type="curve"/>
      <point x="595" y="498" type="line" smooth="yes"/>
      <point x="597" y="516"/>
      <point x="588" y="530"/>
      <point x="569" y="530" type="curve"/>
      <point x="426" y="530" type="line" smooth="yes"/>
      <point x="403" y="530"/>
      <point x="397" y="527"/>
      <point x="394" y="507" type="curve"/>
      <point x="345" y="175" type="line"/>
      <point x="324" y="152"/>
      <point x="292" y="130"/>
    </contour>
  </outline>
</glyph>
<glyph name="Eth" format="2">
  <advance width="754"/>
  <unicode hex="00D0"/>
  <outline>
    <contour>
      <point x="419" y="315" type="curve"/>
      <point x="432" y="408" type="line"/>
      <point x="434" y="420"/>
      <point x="425" y="434"/>
      <point x="414" y="434" type="curve"/>
      <point x="43" y="434" type="line" smooth="yes"/>
      <point x="31" y="434"/>
      <point x="27" y="432"/>
      <point x="25" y="417" type="curve"/>
      <point x="12" y="324" type="line" smooth="yes"/>
      <point x="10" y="307"/>
      <point x="18" y="293"/>
      <point x="38" y="293" type="curve"/>
      <point x="387" y="293" type="line" smooth="yes"/>
      <point x="410" y="293"/>
      <point x="416" y="295"/>
    </contour>
    <component base="D" xOffset="-17"/>
  </outline>
</glyph>
<glyph name="Thorn" format="2">
  <advance width="743"/>
  <unicode hex="00DE"/>
  <outline>
    <contour>
      <point x="729" y="361" type="curve"/>
      <point x="729" y="361" type="line"/>
      <point x="752" y="524"/>
      <point x="623" y="608"/>
      <point x="459" y="608" type="curve"/>
      <point x="333" y="608" type="line" smooth="yes"/>
      <point x="326" y="608"/>
      <point x="327" y="606"/>
      <point x="328" y="614" type="curve"/>
      <point x="342" y="715" type="line" smooth="yes"/>
      <point x="344" y="728"/>
      <point x="336" y="742"/>
      <point x="324" y="742" type="curve"/>
      <point x="134" y="742" type="line" smooth="yes"/>
      <point x="123" y="742"/>
      <point x="119" y="740"/>
      <point x="117" y="725" type="curve"/>
      <point x="19" y="31" type="line" smooth="yes"/>
      <point x="17" y="14"/>
      <point x="25" y="0"/>
      <point x="45" y="0" type="curve"/>
      <point x="213" y="0" type="line" smooth="yes"/>
      <point x="236" y="0"/>
      <point x="242" y="2"/>
      <point x="245" y="23" type="curve"/>
      <point x="259" y="125" type="line" smooth="yes"/>
      <point x="260" y="132"/>
      <point x="269" y="142"/>
      <point x="278" y="142" type="curve"/>
      <point x="428" y="142" type="line" smooth="yes"/>
      <point x="591" y="142"/>
      <point x="710" y="223"/>
    </contour>
    <contour>
      <point x="501" y="386" type="curve"/>
      <point x="501" y="386" type="line"/>
      <point x="495" y="341"/>
      <point x="456" y="302"/>
      <point x="408" y="302" type="curve"/>
      <point x="297" y="302" type="line" smooth="yes"/>
      <point x="284" y="302"/>
      <point x="284" y="303"/>
      <point x="286" y="318" type="curve"/>
      <point x="301" y="421" type="line" smooth="yes"/>
      <point x="303" y="436"/>
      <point x="315" y="448"/>
      <point x="332" y="448" type="curve"/>
      <point x="431" y="448" type="line" smooth="yes"/>
      <point x="477" y="448"/>
      <point x="507" y="426"/>
    </contour>
  </outline>
</glyph>
<glyph name="ae" format="2">
	<advance width="914"/>
	<unicode hex="00E6"/>
	<anchor x="492" y="530" name="top"/>
	<outline>
		<contour>
			<point x="565" y="229" type="curve"/>
			<point x="565" y="229" type="line"/>
			<point x="876" y="229" type="line" smooth="yes"/>
			<point x="893" y="230"/>
			<point x="890" y="231"/>
			<point x="892" y="243" type="curve"/>
			<point x="918" y="429"/>
			<point x="815" y="540"/>
			<point x="654" y="540" type="curve"/>
			<point x="606" y="540"/>
			<point x="555" y="529"/>
			<point x="504" y="500" type="curve"/>
			<point x="473" y="522"/>
			<point x="416" y="539"/>
			<point x="323" y="540" type="curve"/>
			<point x="174" y="540"/>
			<point x="114" y="504"/>
			<point x="65" y="432" type="curve"/>
			<point x="59" y="415"/>
			<point x="64" y="392"/>
			<point x="73" y="390" type="curve"/>
			<point x="200" y="364" type="line" smooth="yes"/>
			<point x="217" y="361"/>
			<point x="218" y="356"/>
			<point x="226" y="364" type="curve"/>
			<point x="247" y="406"/>
			<point x="285" y="421"/>
			<point x="317" y="421" type="curve"/>
			<point x="353" y="421"/>
			<point x="366" y="406"/>
			<point x="361" y="369" type="curve"/>
			<point x="358" y="352" type="line" smooth="yes"/>
			<point x="357" y="340"/>
			<point x="341" y="332"/>
			<point x="333" y="332" type="curve"/>
			<point x="310" y="331" type="line" smooth="yes"/>
			<point x="117" y="322"/>
			<point x="16" y="256"/>
			<point x="1" y="154" type="curve"/>
			<point x="-12" y="58"/>
			<point x="42" y="-10"/>
			<point x="159" y="-10" type="curve"/>
			<point x="247" y="-10"/>
			<point x="314" y="8"/>
			<point x="382" y="62" type="curve"/>
			<point x="384" y="69"/>
			<point x="392" y="79"/>
			<point x="398" y="79" type="curve"/>
			<point x="438" y="24"/>
			<point x="508" y="-10"/>
			<point x="596" y="-10" type="curve"/>
			<point x="704" y="-10"/>
			<point x="773" y="12"/>
			<point x="861" y="108" type="curve"/>
			<point x="870" y="124"/>
			<point x="863" y="136"/>
			<point x="853" y="140" type="curve"/>
			<point x="768" y="177" type="line" smooth="yes"/>
			<point x="755" y="182"/>
			<point x="754" y="187"/>
			<point x="747" y="186" type="curve"/>
			<point x="698" y="139"/>
			<point x="664" y="122"/>
			<point x="626" y="122" type="curve"/>
			<point x="572" y="122"/>
			<point x="534" y="145"/>
			<point x="542" y="201" type="curve"/>
			<point x="544" y="218"/>
			<point x="555" y="229"/>
		</contour>
		<contour>
			<point x="662" y="423" type="curve"/>
			<point x="662" y="423" type="line"/>
			<point x="708" y="423"/>
			<point x="717" y="378"/>
			<point x="714" y="357" type="curve"/>
			<point x="712" y="340"/>
			<point x="702" y="332"/>
			<point x="689" y="332" type="curve"/>
			<point x="563" y="327" type="line"/>
			<point x="570" y="389"/>
			<point x="617" y="423"/>
		</contour>
		<contour>
			<point x="340" y="222" type="curve"/>
			<point x="340" y="222" type="line"/>
			<point x="332" y="166" type="line" smooth="yes"/>
			<point x="327" y="133"/>
			<point x="283" y="108"/>
			<point x="241" y="108" type="curve"/>
			<point x="206" y="108"/>
			<point x="191" y="121"/>
			<point x="194" y="145" type="curve"/>
			<point x="202" y="199"/>
			<point x="275" y="230"/>
			<point x="314" y="233" type="curve"/>
			<point x="328" y="234" type="line" smooth="yes"/>
			<point x="340" y="234"/>
			<point x="342" y="234"/>
		</contour>
	</outline>
</glyph>
<glyph name="kgreenlandic" format="2">
  <advance width="631"/>
  <unicode hex="0138"/>
  <outline>
    <contour>
      <point x="579" y="23" type="curve"/>
      <point x="579" y="23" type="line"/>
      <point x="461" y="332" type="line" smooth="yes"/>
      <point x="456" y="350"/>
      <point x="463" y="357"/>
      <point x="473" y="368" type="curve"/>
      <point x="623" y="497" type="line" smooth="yes"/>
      <point x="637" y="511"/>
      <point x="628" y="530"/>
      <point x="605" y="530" type="curve"/>
      <point x="468" y="530" type="line" smooth="yes"/>
      <point x="458" y="530"/>
      <point x="448" y="527"/>
      <point x="436" y="517" type="curve"/>
      <point x="262" y="348" type="line" smooth="yes"/>
      <point x="254" y="339"/>
      <point x="252" y="334"/>
      <point x="253" y="340" type="curve"/>
      <point x="275" y="503" type="line" smooth="yes"/>
      <point x="277" y="516"/>
      <point x="269" y="530"/>
      <point x="257" y="530" type="curve"/>
      <point x="94" y="530" type="line" smooth="yes"/>
      <point x="83" y="530"/>
      <point x="79" y="528"/>
      <point x="77" y="513" type="curve"/>
      <point x="9" y="31" type="line" smooth="yes"/>
      <point x="7" y="14"/>
      <point x="15" y="0"/>
      <point x="36" y="0" type="curve"/>
      <point x="177" y="0" type="line" smooth="yes"/>
      <point x="200" y="0"/>
      <point x="205" y="2"/>
      <point x="208" y="23" type="curve"/>
      <point x="222" y="124" type="line" smooth="yes"/>
      <point x="224" y="140"/>
      <point x="232" y="149"/>
      <point x="238" y="154" type="curve"/>
      <point x="294" y="199" type="line" smooth="yes"/>
      <point x="304" y="209"/>
      <point x="309" y="216"/>
      <point x="313" y="203" type="curve"/>
      <point x="362" y="31" type="line" smooth="yes"/>
      <point x="365" y="15"/>
      <point x="375" y="0"/>
      <point x="392" y="0" type="curve"/>
      <point x="563" y="0" type="line" smooth="yes"/>
      <point x="581" y="0"/>
      <point x="583" y="12"/>
    </contour>
  </outline>
</glyph>
<glyph name="Eng" format="2">
  <advance width="761"/>
  <unicode hex="014A"/>
  <guideline x="572" y="584" angle="82.0656"/>
  <outline>
    <contour>
      <point x="757" y="742" type="curve"/>
      <point x="757" y="742" type="line"/>
      <point x="612" y="742" type="line" smooth="yes"/>
      <point x="597" y="742"/>
      <point x="594" y="740"/>
      <point x="592" y="727" type="curve"/>
      <point x="552" y="440" type="line" smooth="yes"/>
      <point x="550" y="423"/>
      <point x="539" y="415"/>
      <point x="532" y="426" type="curve"/>
      <point x="331" y="719" type="line" smooth="yes"/>
      <point x="323" y="734"/>
      <point x="314" y="742"/>
      <point x="297" y="742" type="curve"/>
      <point x="137" y="742" type="line" smooth="yes"/>
      <point x="122" y="742"/>
      <point x="119" y="737"/>
      <point x="117" y="724" type="curve"/>
      <point x="18" y="26" type="line" smooth="yes"/>
      <point x="16" y="11"/>
      <point x="29" y="0"/>
      <point x="44" y="0" type="curve"/>
      <point x="180" y="0" type="line" smooth="yes"/>
      <point x="198" y="0"/>
      <point x="201" y="0"/>
      <point x="202" y="16" type="curve"/>
      <point x="253" y="380" type="line" smooth="yes"/>
      <point x="255" y="395"/>
      <point x="263" y="399"/>
      <point x="268" y="392" type="curve"/>
      <point x="480" y="73" type="line"/>
      <point x="478" y="63" type="line" smooth="yes"/>
      <point x="467" y="10"/>
      <point x="454" y="-13"/>
      <point x="401" y="-13" type="curve"/>
      <point x="383" y="-13"/>
      <point x="322" y="-6"/>
      <point x="302" y="-2" type="curve"/>
      <point x="291" y="0"/>
      <point x="287" y="-2"/>
      <point x="284" y="-17" type="curve"/>
      <point x="261" y="-114" type="line" smooth="yes"/>
      <point x="256" y="-142"/>
      <point x="268" y="-158"/>
      <point x="294" y="-161" type="curve"/>
      <point x="334" y="-170"/>
      <point x="377" y="-175"/>
      <point x="422" y="-175" type="curve"/>
      <point x="570" y="-175"/>
      <point x="655" y="-120"/>
      <point x="678" y="41" type="curve"/>
      <point x="773" y="719" type="line" smooth="yes"/>
      <point x="775" y="733"/>
      <point x="770" y="742"/>
    </contour>
  </outline>
</glyph>
<glyph name="eng" format="2">
  <advance width="610"/>
  <unicode hex="014B"/>
  <outline>
    <contour>
      <point x="443" y="540" type="curve"/>
      <point x="443" y="540" type="line"/>
      <point x="385" y="540"/>
      <point x="327" y="511"/>
      <point x="278" y="470" type="curve"/>
      <point x="270" y="458"/>
      <point x="266" y="451"/>
      <point x="267" y="459" type="curve"/>
      <point x="274" y="504" type="line" smooth="yes"/>
      <point x="275" y="516"/>
      <point x="267" y="530"/>
      <point x="255" y="530" type="curve"/>
      <point x="97" y="530" type="line" smooth="yes"/>
      <point x="85" y="530"/>
      <point x="82" y="527"/>
      <point x="80" y="513" type="curve"/>
      <point x="8" y="31" type="line" smooth="yes"/>
      <point x="6" y="13"/>
      <point x="15" y="0"/>
      <point x="34" y="0" type="curve"/>
      <point x="177" y="0" type="line" smooth="yes"/>
      <point x="201" y="0"/>
      <point x="206" y="2"/>
      <point x="209" y="23" type="curve"/>
      <point x="256" y="344" type="line"/>
      <point x="280" y="378"/>
      <point x="308" y="399"/>
      <point x="343" y="399" type="curve"/>
      <point x="371" y="399"/>
      <point x="386" y="387"/>
      <point x="382" y="357" type="curve"/>
      <point x="338" y="42" type="line" smooth="yes"/>
      <point x="333" y="8"/>
      <point x="316" y="-4"/>
      <point x="303" y="-8" type="curve"/>
      <point x="277" y="-15" type="line" smooth="yes"/>
      <point x="263" y="-18"/>
      <point x="259" y="-26"/>
      <point x="258" y="-37" type="curve"/>
      <point x="244" y="-139" type="line" smooth="yes"/>
      <point x="241" y="-160"/>
      <point x="256" y="-170"/>
      <point x="306" y="-170" type="curve"/>
      <point x="419" y="-170"/>
      <point x="516" y="-109"/>
      <point x="535" y="23" type="curve"/>
      <point x="584" y="372" type="line" smooth="yes"/>
      <point x="598" y="471"/>
      <point x="540" y="540"/>
    </contour>
  </outline>
</glyph>
<glyph name="Tbar" format="2">
  <advance width="704"/>
  <unicode hex="0166"/>
  <outline>
    <contour>
      <point x="576" y="303" type="curve"/>
      <point x="589" y="396" type="line"/>
      <point x="591" y="408"/>
      <point x="582" y="422"/>
      <point x="571" y="422" type="curve"/>
      <point x="170" y="422" type="line" smooth="yes"/>
      <point x="158" y="422"/>
      <point x="155" y="420"/>
      <point x="153" y="405" type="curve"/>
      <point x="140" y="312" type="line" smooth="yes"/>
      <point x="138" y="295"/>
      <point x="145" y="281"/>
      <point x="165" y="281" type="curve"/>
      <point x="544" y="281" type="line" smooth="yes"/>
      <point x="567" y="281"/>
      <point x="573" y="283"/>
    </contour>
    <component base="T"/>
  </outline>
</glyph>
<glyph name="tbar" format="2">
  <advance width="462"/>
  <unicode hex="0167"/>
  <outline>
    <contour>
      <point x="409" y="249" type="curve"/>
      <point x="418" y="314" type="line"/>
      <point x="420" y="325"/>
      <point x="411" y="338"/>
      <point x="401" y="338" type="curve"/>
      <point x="62" y="338" type="line" smooth="yes"/>
      <point x="52" y="338"/>
      <point x="50" y="337"/>
      <point x="48" y="324" type="curve"/>
      <point x="39" y="259" type="line" smooth="yes"/>
      <point x="37" y="244"/>
      <point x="44" y="231"/>
      <point x="61" y="231" type="curve"/>
      <point x="381" y="231" type="line" smooth="yes"/>
      <point x="401" y="231"/>
      <point x="407" y="232"/>
    </contour>
    <component base="t"/>
  </outline>
</glyph>
<glyph name="Schwa" format="2">
  <advance width="778"/>
  <unicode hex="018F"/>
  <outline>
    <contour>
      <point x="534" y="458" type="curve"/>
      <point x="534" y="458" type="line"/>
      <point x="531" y="437"/>
      <point x="518" y="425"/>
      <point x="505" y="425" type="curve"/>
      <point x="72" y="425" type="line" smooth="yes"/>
      <point x="50" y="425"/>
      <point x="53" y="420"/>
      <point x="50" y="403" type="curve"/>
      <point x="14" y="142"/>
      <point x="117" y="-10"/>
      <point x="354" y="-10" type="curve"/>
      <point x="543" y="-10"/>
      <point x="731" y="152"/>
      <point x="762" y="369" type="curve"/>
      <point x="793" y="593"/>
      <point x="674" y="752"/>
      <point x="448" y="752" type="curve"/>
      <point x="306" y="752"/>
      <point x="194" y="694"/>
      <point x="115" y="577" type="curve"/>
      <point x="106" y="556"/>
      <point x="109" y="544"/>
      <point x="120" y="538" type="curve"/>
      <point x="250" y="471" type="line" smooth="yes"/>
      <point x="265" y="462"/>
      <point x="269" y="457"/>
      <point x="275" y="459" type="curve"/>
      <point x="331" y="539"/>
      <point x="376" y="578"/>
      <point x="442" y="578" type="curve"/>
      <point x="536" y="578"/>
      <point x="542" y="512"/>
    </contour>
    <contour>
      <point x="303" y="285" type="curve"/>
      <point x="508" y="290" type="line"/>
      <point x="483" y="198"/>
      <point x="443" y="146"/>
      <point x="358" y="146" type="curve"/>
      <point x="294" y="146"/>
      <point x="264" y="195"/>
      <point x="273" y="256" type="curve"/>
      <point x="276" y="276"/>
      <point x="286" y="285"/>
    </contour>
  </outline>
</glyph>
<glyph name="schwa" format="2">
  <advance width="590"/>
  <unicode hex="0259"/>
  <outline>
    <contour>
      <point x="318" y="540" type="curve"/>
      <point x="318" y="540" type="line"/>
      <point x="210" y="540"/>
      <point x="141" y="518"/>
      <point x="53" y="422" type="curve" smooth="yes"/>
      <point x="41" y="408"/>
      <point x="45" y="397"/>
      <point x="61" y="390" type="curve" smooth="yes"/>
      <point x="146" y="353" type="line" smooth="yes"/>
      <point x="158" y="348"/>
      <point x="166" y="346"/>
      <point x="174" y="354" type="curve" smooth="yes"/>
      <point x="215" y="394"/>
      <point x="250" y="408"/>
      <point x="288" y="408" type="curve" smooth="yes"/>
      <point x="337" y="408"/>
      <point x="373" y="389"/>
      <point x="373" y="343" type="curve" smooth="yes"/>
      <point x="373" y="327"/>
      <point x="371" y="301"/>
      <point x="355" y="301" type="curve" smooth="yes"/>
      <point x="46" y="301" type="line" smooth="yes"/>
      <point x="29" y="301"/>
      <point x="24" y="299"/>
      <point x="22" y="287" type="curve" smooth="yes"/>
      <point x="19" y="268"/>
      <point x="18" y="250"/>
      <point x="18" y="232" type="curve" smooth="yes"/>
      <point x="18" y="80"/>
      <point x="116" y="-10"/>
      <point x="260" y="-10" type="curve" smooth="yes"/>
      <point x="436" y="-10"/>
      <point x="572" y="140"/>
      <point x="572" y="304" type="curve" smooth="yes"/>
      <point x="572" y="444"/>
      <point x="468" y="540"/>
    </contour>
    <contour>
      <point x="225" y="203" type="curve" smooth="yes"/>
      <point x="351" y="203" type="line"/>
      <point x="344" y="141"/>
      <point x="298" y="107"/>
      <point x="257" y="107" type="curve" smooth="yes"/>
      <point x="215" y="107"/>
      <point x="200" y="142"/>
      <point x="200" y="168" type="curve" smooth="yes"/>
      <point x="200" y="192"/>
      <point x="212" y="203"/>
    </contour>
  </outline>
</glyph>
<glyph name="acutecomb" format="2">
  <unicode hex="0301"/>
  <anchor x="-123" y="530" name="_top"/>
  <outline>
    <contour>
      <point x="42" y="653" type="curve"/>
      <point x="23" y="734" type="line"/>
      <point x="19" y="752"/>
      <point x="11" y="754"/>
      <point x="2" y="750" type="curve"/>
      <point x="-250" y="652" type="line" smooth="yes"/>
      <point x="-258" y="649"/>
      <point x="-258" y="643"/>
      <point x="-255" y="631" type="curve"/>
      <point x="-246" y="588" type="line" smooth="yes"/>
      <point x="-243" y="574"/>
      <point x="-235" y="565"/>
      <point x="-217" y="569" type="curve"/>
      <point x="24" y="625" type="line" smooth="yes"/>
      <point x="44" y="630"/>
      <point x="45" y="638"/>
    </contour>
  </outline>
</glyph>
<glyph name="circumflexcomb" format="2">
  <unicode hex="0302"/>
  <anchor x="-156" y="726" name="top"/>
  <anchor x="-28" y="664" name="topviet"/>
  <anchor x="-173" y="530" name="_top"/>
  <outline>
    <contour>
      <point x="-137" y="663" type="curve"/>
      <point x="-103" y="609" type="line"/>
      <point x="-98" y="600"/>
      <point x="-93" y="595"/>
      <point x="-81" y="595" type="curve"/>
      <point x="15" y="595" type="line" smooth="yes"/>
      <point x="29" y="595"/>
      <point x="34" y="596"/>
      <point x="25" y="609" type="curve"/>
      <point x="-69" y="735" type="line" smooth="yes"/>
      <point x="-74" y="742"/>
      <point x="-80" y="752"/>
      <point x="-94" y="752" type="curve"/>
      <point x="-189" y="752" type="line" smooth="yes"/>
      <point x="-208" y="752"/>
      <point x="-217" y="751"/>
      <point x="-227" y="741" type="curve"/>
      <point x="-358" y="613" type="line" smooth="yes"/>
      <point x="-366" y="606"/>
      <point x="-366" y="595"/>
      <point x="-354" y="595" type="curve"/>
      <point x="-251" y="595" type="line" smooth="yes"/>
      <point x="-238" y="595"/>
      <point x="-233" y="596"/>
      <point x="-223" y="606" type="curve"/>
      <point x="-165" y="664" type="line" smooth="yes"/>
      <point x="-151" y="678"/>
      <point x="-146" y="678"/>
    </contour>
  </outline>
</glyph>
<glyph name="hookabovecomb" format="2">
  <unicode hex="0309"/>
  <anchor x="-248" y="530" name="_top"/>
  <anchor x="-317" y="583" name="_topviet"/>
  <outline>
    <contour>
      <point x="-321" y="784" type="curve"/>
      <point x="-321" y="784" type="line"/>
      <point x="-283" y="797"/>
      <point x="-258" y="808"/>
      <point x="-229" y="808" type="curve"/>
      <point x="-166" y="808"/>
      <point x="-122" y="771"/>
      <point x="-130" y="713" type="curve"/>
      <point x="-137" y="662"/>
      <point x="-181" y="628"/>
      <point x="-233" y="589" type="curve"/>
      <point x="-241" y="583"/>
      <point x="-248" y="586"/>
      <point x="-252" y="592" type="curve"/>
      <point x="-275" y="631" type="line" smooth="yes"/>
      <point x="-279" y="638"/>
      <point x="-275" y="646"/>
      <point x="-270" y="649" type="curve"/>
      <point x="-229" y="674"/>
      <point x="-213" y="687"/>
      <point x="-210" y="708" type="curve"/>
      <point x="-208" y="724"/>
      <point x="-227" y="729"/>
      <point x="-241" y="729" type="curve"/>
      <point x="-258" y="729"/>
      <point x="-275" y="724"/>
      <point x="-296" y="713" type="curve"/>
      <point x="-304" y="709"/>
      <point x="-309" y="713"/>
      <point x="-312" y="720" type="curve"/>
      <point x="-331" y="767" type="line" smooth="yes"/>
      <point x="-335" y="776"/>
      <point x="-330" y="781"/>
    </contour>
  </outline>
</glyph>
<glyph name="dblgravecomb" format="2">
	<advance width="0"/>
	<unicode hex="030F"/>
	<anchor x="-171" y="530" name="_top"/>
	<outline>
		<contour>
			<point x="-337" y="743" type="curve"/>
			<point x="-337" y="743" type="line"/>
			<point x="-399" y="682" type="line" smooth="yes"/>
			<point x="-410" y="671"/>
			<point x="-405" y="659"/>
			<point x="-388" y="649" type="curve"/>
			<point x="-255" y="569" type="line" smooth="yes"/>
			<point x="-242" y="560"/>
			<point x="-234" y="554"/>
			<point x="-225" y="562" type="curve"/>
			<point x="-186" y="597" type="line" smooth="yes"/>
			<point x="-177" y="606"/>
			<point x="-181" y="616"/>
			<point x="-187" y="622" type="curve"/>
			<point x="-311" y="743" type="line" smooth="yes"/>
			<point x="-317" y="750"/>
			<point x="-328" y="751"/>
		</contour>
		<contour>
			<point x="-118" y="743" type="curve"/>
			<point x="-118" y="743" type="line"/>
			<point x="-180" y="682" type="line" smooth="yes"/>
			<point x="-191" y="671"/>
			<point x="-186" y="659"/>
			<point x="-169" y="649" type="curve"/>
			<point x="-36" y="569" type="line" smooth="yes"/>
			<point x="-23" y="560"/>
			<point x="-15" y="554"/>
			<point x="-6" y="562" type="curve"/>
			<point x="33" y="597" type="line" smooth="yes"/>
			<point x="42" y="606"/>
			<point x="38" y="616"/>
			<point x="32" y="622" type="curve"/>
			<point x="-92" y="743" type="line" smooth="yes"/>
			<point x="-98" y="750"/>
			<point x="-109" y="751"/>
		</contour>
	</outline>
</glyph>
<glyph name="breveinvertedcomb" format="2">
  <unicode hex="0311"/>
  <anchor x="19" y="742" name="top"/>
  <anchor x="-171" y="530" name="_top"/>
  <outline>
    <contour>
      <point x="-320" y="593" type="curve"/>
      <point x="-320" y="593" type="line"/>
      <point x="-248" y="593" type="line" smooth="yes"/>
      <point x="-240" y="593"/>
      <point x="-230" y="595"/>
      <point x="-223" y="606" type="curve"/>
      <point x="-200" y="640"/>
      <point x="-160" y="653"/>
      <point x="-126" y="653" type="curve"/>
      <point x="-97" y="653"/>
      <point x="-66" y="640"/>
      <point x="-49" y="617" type="curve"/>
      <point x="-39" y="604"/>
      <point x="-38" y="593"/>
      <point x="-26" y="593" type="curve"/>
      <point x="45" y="593" type="line" smooth="yes"/>
      <point x="62" y="593"/>
      <point x="63" y="605"/>
      <point x="61" y="618" type="curve"/>
      <point x="47" y="712"/>
      <point x="-37" y="742"/>
      <point x="-128" y="742" type="curve"/>
      <point x="-212" y="742"/>
      <point x="-290" y="707"/>
      <point x="-332" y="624" type="curve"/>
      <point x="-339" y="610"/>
      <point x="-334" y="593"/>
    </contour>
  </outline>
</glyph>
<glyph name="horncomb" format="2">
  <unicode hex="031B"/>
  <anchor x="-341" y="530" name="_topright"/>
  <anchor x="-167" y="530" name="topright"/>
  <outline>
    <contour>
      <point x="-100" y="589" type="curve"/>
      <point x="-100" y="589" type="line"/>
      <point x="-172" y="589" type="line" smooth="yes"/>
      <point x="-180" y="589"/>
      <point x="-190" y="587"/>
      <point x="-197" y="576" type="curve"/>
      <point x="-219" y="541"/>
      <point x="-260" y="529"/>
      <point x="-294" y="529" type="curve"/>
      <point x="-297" y="440" type="line"/>
      <point x="-213" y="440"/>
      <point x="-130" y="475"/>
      <point x="-88" y="558" type="curve"/>
      <point x="-81" y="572"/>
      <point x="-86" y="589"/>
    </contour>
  </outline>
</glyph>
<glyph name="pi" format="2">
  <advance width="676"/>
  <unicode hex="03C0"/>
  <outline>
    <contour>
      <point x="623" y="395" type="curve"/>
      <point x="668" y="395" type="line"/>
      <point x="679" y="395"/>
      <point x="684" y="396"/>
      <point x="687" y="412" type="curve"/>
      <point x="699" y="502" type="line" smooth="yes"/>
      <point x="701" y="517"/>
      <point x="694" y="530"/>
      <point x="679" y="530" type="curve"/>
      <point x="66" y="530" type="line" smooth="yes"/>
      <point x="51" y="530"/>
      <point x="47" y="530"/>
      <point x="45" y="516" type="curve"/>
      <point x="32" y="421" type="line" smooth="yes"/>
      <point x="30" y="408"/>
      <point x="40" y="395"/>
      <point x="54" y="395" type="curve"/>
      <point x="105" y="395" type="line" smooth="yes"/>
      <point x="111" y="395"/>
      <point x="111" y="397"/>
      <point x="110" y="396" type="curve"/>
      <point x="97" y="300"/>
      <point x="48" y="132"/>
      <point x="6" y="28" type="curve"/>
      <point x="1" y="12"/>
      <point x="10" y="0"/>
      <point x="20" y="0" type="curve"/>
      <point x="179" y="0" type="line" smooth="yes"/>
      <point x="187" y="0"/>
      <point x="189" y="-1"/>
      <point x="194" y="1" type="curve"/>
      <point x="237" y="100"/>
      <point x="287" y="283"/>
      <point x="299" y="375" type="curve"/>
      <point x="301" y="386"/>
      <point x="309" y="395"/>
      <point x="316" y="395" type="curve"/>
      <point x="403" y="395" type="line" smooth="yes"/>
      <point x="413" y="395"/>
      <point x="413" y="395"/>
      <point x="412" y="388" type="curve"/>
      <point x="361" y="25" type="line" smooth="yes"/>
      <point x="359" y="12"/>
      <point x="369" y="0"/>
      <point x="380" y="0" type="curve"/>
      <point x="535" y="0" type="line" smooth="yes"/>
      <point x="547" y="0"/>
      <point x="549" y="0"/>
      <point x="551" y="13" type="curve"/>
      <point x="601" y="375" type="line" smooth="yes"/>
      <point x="603" y="383"/>
      <point x="613" y="395"/>
    </contour>
  </outline>
</glyph>
<glyph name="emdash" format="2">
  <advance width="928"/>
  <unicode hex="2014"/>
  <outline>
    <contour>
      <point x="880" y="205" type="curve"/>
      <point x="892" y="297" type="line"/>
      <point x="894" y="309"/>
      <point x="885" y="323"/>
      <point x="874" y="323" type="curve"/>
      <point x="63" y="323" type="line" smooth="yes"/>
      <point x="51" y="323"/>
      <point x="48" y="321"/>
      <point x="46" y="306" type="curve"/>
      <point x="33" y="214" type="line" smooth="yes"/>
      <point x="30" y="197"/>
      <point x="38" y="183"/>
      <point x="58" y="183" type="curve"/>
      <point x="847" y="183" type="line" smooth="yes"/>
      <point x="870" y="183"/>
      <point x="877" y="185"/>
    </contour>
  </outline>
</glyph>
<glyph name="quotesinglbase" format="2">
  <advance width="253"/>
  <unicode hex="201A"/>
  <outline>
    <contour>
      <point x="-3" y="-155" type="curve"/>
      <point x="-3" y="-155" type="line"/>
      <point x="13" y="-155" type="line" smooth="yes"/>
      <point x="27" y="-155"/>
      <point x="49" y="-143"/>
      <point x="59" y="-129" type="curve"/>
      <point x="181" y="22" type="line" smooth="yes"/>
      <point x="183" y="25"/>
      <point x="188" y="31"/>
      <point x="189" y="37" type="curve"/>
      <point x="207" y="164" type="line" smooth="yes"/>
      <point x="208" y="175"/>
      <point x="206" y="176"/>
      <point x="195" y="176" type="curve"/>
      <point x="48" y="176" type="line" smooth="yes"/>
      <point x="37" y="176"/>
      <point x="25" y="163"/>
      <point x="23" y="149" type="curve"/>
      <point x="4" y="17" type="line" smooth="yes"/>
      <point x="2" y="1"/>
      <point x="4" y="1"/>
      <point x="22" y="-1" type="curve"/>
      <point x="37" y="-3" type="line" smooth="yes"/>
      <point x="52" y="-6"/>
      <point x="56" y="-18"/>
      <point x="48" y="-36" type="curve"/>
      <point x="-10" y="-138" type="line" smooth="yes"/>
      <point x="-15" y="-148"/>
      <point x="-15" y="-155"/>
    </contour>
  </outline>
</glyph>
<glyph name="quotedblright" format="2">
  <advance width="513"/>
  <unicode hex="201D"/>
  <outline>
    <contour>
      <point x="333" y="411" type="curve"/>
      <point x="333" y="411" type="line"/>
      <point x="349" y="411" type="line" smooth="yes"/>
      <point x="363" y="411"/>
      <point x="384" y="423"/>
      <point x="394" y="437" type="curve"/>
      <point x="516" y="588" type="line" smooth="yes"/>
      <point x="519" y="591"/>
      <point x="524" y="597"/>
      <point x="525" y="603" type="curve"/>
      <point x="542" y="730" type="line" smooth="yes"/>
      <point x="544" y="741"/>
      <point x="542" y="742"/>
      <point x="531" y="742" type="curve"/>
      <point x="384" y="742" type="line" smooth="yes"/>
      <point x="373" y="742"/>
      <point x="360" y="729"/>
      <point x="358" y="715" type="curve"/>
      <point x="340" y="583" type="line" smooth="yes"/>
      <point x="337" y="567"/>
      <point x="339" y="567"/>
      <point x="357" y="565" type="curve"/>
      <point x="373" y="563" type="line" smooth="yes"/>
      <point x="387" y="560"/>
      <point x="392" y="548"/>
      <point x="383" y="530" type="curve"/>
      <point x="326" y="428" type="line" smooth="yes"/>
      <point x="321" y="418"/>
      <point x="321" y="411"/>
    </contour>
    <contour>
      <point x="77" y="411" type="curve"/>
      <point x="77" y="411" type="line"/>
      <point x="93" y="411" type="line" smooth="yes"/>
      <point x="107" y="411"/>
      <point x="128" y="423"/>
      <point x="138" y="437" type="curve"/>
      <point x="260" y="588" type="line" smooth="yes"/>
      <point x="263" y="591"/>
      <point x="268" y="597"/>
      <point x="269" y="603" type="curve"/>
      <point x="286" y="730" type="line" smooth="yes"/>
      <point x="288" y="741"/>
      <point x="286" y="742"/>
      <point x="275" y="742" type="curve"/>
      <point x="128" y="742" type="line" smooth="yes"/>
      <point x="117" y="742"/>
      <point x="104" y="729"/>
      <point x="102" y="715" type="curve"/>
      <point x="84" y="583" type="line" smooth="yes"/>
      <point x="81" y="567"/>
      <point x="83" y="567"/>
      <point x="101" y="565" type="curve"/>
      <point x="117" y="563" type="line" smooth="yes"/>
      <point x="131" y="560"/>
      <point x="136" y="548"/>
      <point x="127" y="530" type="curve"/>
      <point x="70" y="428" type="line" smooth="yes"/>
      <point x="65" y="418"/>
      <point x="65" y="411"/>
    </contour>
  </outline>
</glyph>
<glyph name="daggerdbl" format="2">
  <advance width="562"/>
  <unicode hex="2021"/>
  <outline>
    <contour>
      <point x="378" y="361" type="curve"/>
      <point x="378" y="361" type="line"/>
      <point x="520" y="339" type="line" smooth="yes"/>
      <point x="533" y="337"/>
      <point x="536" y="338"/>
      <point x="538" y="350" type="curve"/>
      <point x="556" y="475" type="line" smooth="yes"/>
      <point x="557" y="486"/>
      <point x="548" y="503"/>
      <point x="533" y="501" type="curve"/>
      <point x="399" y="482" type="line" smooth="yes"/>
      <point x="378" y="479"/>
      <point x="375" y="482"/>
      <point x="380" y="503" type="curve"/>
      <point x="436" y="716" type="line" smooth="yes"/>
      <point x="440" y="729"/>
      <point x="429" y="742"/>
      <point x="417" y="742" type="curve"/>
      <point x="272" y="742" type="line" smooth="yes"/>
      <point x="261" y="742"/>
      <point x="256" y="741"/>
      <point x="256" y="726" type="curve"/>
      <point x="251" y="514" type="line" smooth="yes"/>
      <point x="249" y="494"/>
      <point x="238" y="477"/>
      <point x="216" y="480" type="curve"/>
      <point x="87" y="499" type="line" smooth="yes"/>
      <point x="72" y="501"/>
      <point x="69" y="498"/>
      <point x="67" y="487" type="curve"/>
      <point x="50" y="362" type="line" smooth="yes"/>
      <point x="48" y="350"/>
      <point x="57" y="335"/>
      <point x="70" y="337" type="curve"/>
      <point x="211" y="358" type="line" smooth="yes"/>
      <point x="232" y="361"/>
      <point x="235" y="361"/>
      <point x="234" y="343" type="curve"/>
      <point x="215" y="205" type="line" smooth="yes"/>
      <point x="212" y="186"/>
      <point x="198" y="172"/>
      <point x="177" y="175" type="curve"/>
      <point x="42" y="196" type="line" smooth="yes"/>
      <point x="30" y="198"/>
      <point x="26" y="197"/>
      <point x="25" y="185" type="curve"/>
      <point x="7" y="60" type="line" smooth="yes"/>
      <point x="6" y="49"/>
      <point x="14" y="32"/>
      <point x="30" y="34" type="curve"/>
      <point x="164" y="53" type="line" smooth="yes"/>
      <point x="187" y="56"/>
      <point x="187" y="53"/>
      <point x="181" y="33" type="curve"/>
      <point x="133" y="-137" type="line" smooth="yes"/>
      <point x="129" y="-152"/>
      <point x="142" y="-165"/>
      <point x="153" y="-165" type="curve"/>
      <point x="298" y="-165" type="line" smooth="yes"/>
      <point x="310" y="-165"/>
      <point x="313" y="-164"/>
      <point x="313" y="-151" type="curve"/>
      <point x="312" y="20" type="line" smooth="yes"/>
      <point x="313" y="41"/>
      <point x="327" y="58"/>
      <point x="347" y="55" type="curve"/>
      <point x="476" y="36" type="line" smooth="yes"/>
      <point x="491" y="34"/>
      <point x="494" y="37"/>
      <point x="496" y="48" type="curve"/>
      <point x="513" y="173" type="line" smooth="yes"/>
      <point x="515" y="185"/>
      <point x="506" y="200"/>
      <point x="493" y="198" type="curve"/>
      <point x="344" y="176" type="line" smooth="yes"/>
      <point x="328" y="174"/>
      <point x="326" y="173"/>
      <point x="329" y="192" type="curve"/>
      <point x="348" y="331" type="line" smooth="yes"/>
      <point x="352" y="350"/>
      <point x="363" y="363"/>
    </contour>
  </outline>
</glyph>
<glyph name="servicemark" format="2">
  <advance width="1050"/>
  <unicode hex="2120"/>
  <outline>
    <contour>
      <point x="339" y="623" type="curve"/>
      <point x="339" y="623" type="line"/>
      <point x="346" y="616"/>
      <point x="353" y="609"/>
      <point x="358" y="613" type="curve"/>
      <point x="430" y="659" type="line"/>
      <point x="437" y="664"/>
      <point x="435" y="669"/>
      <point x="430" y="677" type="curve"/>
      <point x="402" y="714"/>
      <point x="340" y="748"/>
      <point x="258" y="748" type="curve" smooth="yes"/>
      <point x="149" y="748"/>
      <point x="53" y="684"/>
      <point x="53" y="584" type="curve" smooth="yes"/>
      <point x="53" y="529"/>
      <point x="90" y="487"/>
      <point x="153" y="467" type="curve" smooth="yes"/>
      <point x="245" y="439" type="line" smooth="yes"/>
      <point x="268" y="432"/>
      <point x="283" y="422"/>
      <point x="283" y="406" type="curve" smooth="yes"/>
      <point x="283" y="373"/>
      <point x="250" y="364"/>
      <point x="215" y="364" type="curve" smooth="yes"/>
      <point x="151" y="364"/>
      <point x="133" y="380"/>
      <point x="105" y="412" type="curve" smooth="yes"/>
      <point x="98" y="420"/>
      <point x="90" y="425"/>
      <point x="78" y="418" type="curve" smooth="yes"/>
      <point x="11" y="377" type="line" smooth="yes"/>
      <point x="4" y="373"/>
      <point x="5" y="369"/>
      <point x="10" y="360" type="curve" smooth="yes"/>
      <point x="39" y="307"/>
      <point x="105" y="272"/>
      <point x="203" y="272" type="curve" smooth="yes"/>
      <point x="325" y="272"/>
      <point x="421" y="331"/>
      <point x="421" y="440" type="curve" smooth="yes"/>
      <point x="421" y="493"/>
      <point x="388" y="526"/>
      <point x="323" y="547" type="curve" smooth="yes"/>
      <point x="223" y="580" type="line" smooth="yes"/>
      <point x="206" y="585"/>
      <point x="185" y="594"/>
      <point x="185" y="613" type="curve" smooth="yes"/>
      <point x="185" y="638"/>
      <point x="212" y="652"/>
      <point x="253" y="652" type="curve" smooth="yes"/>
      <point x="297" y="652"/>
      <point x="324" y="636"/>
    </contour>
    <contour>
      <point x="458" y="278" type="curve"/>
      <point x="458" y="278" type="line"/>
      <point x="547" y="278" type="line" smooth="yes"/>
      <point x="555" y="278"/>
      <point x="559" y="280"/>
      <point x="560" y="288" type="curve" smooth="yes"/>
      <point x="600" y="570" type="line" smooth="yes"/>
      <point x="601" y="577"/>
      <point x="607" y="578"/>
      <point x="609" y="569" type="curve" smooth="yes"/>
      <point x="659" y="292" type="line"/>
      <point x="662" y="281"/>
      <point x="666" y="278"/>
      <point x="674" y="278" type="curve" smooth="yes"/>
      <point x="739" y="278" type="line" smooth="yes"/>
      <point x="746" y="278"/>
      <point x="750" y="279"/>
      <point x="754" y="286" type="curve"/>
      <point x="884" y="571" type="line" smooth="yes"/>
      <point x="888" y="579"/>
      <point x="892" y="579"/>
      <point x="890" y="572" type="curve"/>
      <point x="852" y="297" type="line"/>
      <point x="849" y="282"/>
      <point x="855" y="278"/>
      <point x="868" y="278" type="curve" smooth="yes"/>
      <point x="974" y="278" type="line" smooth="yes"/>
      <point x="988" y="278"/>
      <point x="991" y="279"/>
      <point x="993" y="292" type="curve" smooth="yes"/>
      <point x="1055" y="732" type="line" smooth="yes"/>
      <point x="1056" y="739"/>
      <point x="1054" y="742"/>
      <point x="1047" y="742" type="curve" smooth="yes"/>
      <point x="862" y="742" type="line" smooth="yes"/>
      <point x="853" y="742"/>
      <point x="849" y="738"/>
      <point x="845" y="727" type="curve"/>
      <point x="757" y="530" type="line" smooth="yes"/>
      <point x="755" y="526"/>
      <point x="751" y="525"/>
      <point x="750" y="530" type="curve" smooth="yes"/>
      <point x="713" y="727" type="line" smooth="yes"/>
      <point x="711" y="736"/>
      <point x="707" y="742"/>
      <point x="696" y="742" type="curve" smooth="yes"/>
      <point x="521" y="742" type="line" smooth="yes"/>
      <point x="512" y="742"/>
      <point x="510" y="741"/>
      <point x="509" y="731" type="curve" smooth="yes"/>
      <point x="449" y="299" type="line" smooth="yes"/>
      <point x="446" y="281"/>
      <point x="448" y="278"/>
    </contour>
  </outline>
</glyph>
<glyph name="trademark" format="2">
  <advance width="1058"/>
  <unicode hex="2122"/>
  <outline>
    <contour>
      <point x="60" y="731" type="curve" smooth="yes"/>
      <point x="49" y="651" type="line" smooth="yes"/>
      <point x="48" y="644"/>
      <point x="51" y="641"/>
      <point x="60" y="641" type="curve" smooth="yes"/>
      <point x="171" y="641" type="line" smooth="yes"/>
      <point x="176" y="641"/>
      <point x="178" y="639"/>
      <point x="178" y="634" type="curve"/>
      <point x="130" y="294" type="line" smooth="yes"/>
      <point x="128" y="282"/>
      <point x="130" y="278"/>
      <point x="141" y="278" type="curve" smooth="yes"/>
      <point x="259" y="278" type="line" smooth="yes"/>
      <point x="266" y="278"/>
      <point x="270" y="281"/>
      <point x="271" y="290" type="curve" smooth="yes"/>
      <point x="319" y="631" type="line" smooth="yes"/>
      <point x="320" y="639"/>
      <point x="321" y="641"/>
      <point x="330" y="641" type="curve" smooth="yes"/>
      <point x="441" y="641" type="line" smooth="yes"/>
      <point x="449" y="641"/>
      <point x="452" y="642"/>
      <point x="453" y="649" type="curve" smooth="yes"/>
      <point x="465" y="731" type="line" smooth="yes"/>
      <point x="466" y="739"/>
      <point x="465" y="742"/>
      <point x="455" y="742" type="curve" smooth="yes"/>
      <point x="75" y="742" type="line" smooth="yes"/>
      <point x="64" y="742"/>
      <point x="61" y="739"/>
    </contour>
    <contour>
      <point x="468" y="278" type="curve"/>
      <point x="468" y="278" type="line"/>
      <point x="557" y="278" type="line" smooth="yes"/>
      <point x="565" y="278"/>
      <point x="569" y="280"/>
      <point x="570" y="288" type="curve" smooth="yes"/>
      <point x="610" y="570" type="line" smooth="yes"/>
      <point x="611" y="577"/>
      <point x="617" y="578"/>
      <point x="619" y="569" type="curve" smooth="yes"/>
      <point x="669" y="292" type="line"/>
      <point x="672" y="281"/>
      <point x="676" y="278"/>
      <point x="684" y="278" type="curve" smooth="yes"/>
      <point x="749" y="278" type="line" smooth="yes"/>
      <point x="756" y="278"/>
      <point x="760" y="279"/>
      <point x="764" y="286" type="curve"/>
      <point x="894" y="571" type="line" smooth="yes"/>
      <point x="898" y="579"/>
      <point x="902" y="579"/>
      <point x="900" y="572" type="curve"/>
      <point x="862" y="297" type="line"/>
      <point x="859" y="282"/>
      <point x="865" y="278"/>
      <point x="878" y="278" type="curve" smooth="yes"/>
      <point x="984" y="278" type="line" smooth="yes"/>
      <point x="998" y="278"/>
      <point x="1001" y="279"/>
      <point x="1003" y="292" type="curve" smooth="yes"/>
      <point x="1065" y="732" type="line" smooth="yes"/>
      <point x="1066" y="739"/>
      <point x="1064" y="742"/>
      <point x="1057" y="742" type="curve" smooth="yes"/>
      <point x="872" y="742" type="line" smooth="yes"/>
      <point x="863" y="742"/>
      <point x="859" y="738"/>
      <point x="855" y="727" type="curve"/>
      <point x="767" y="530" type="line" smooth="yes"/>
      <point x="765" y="526"/>
      <point x="761" y="525"/>
      <point x="760" y="530" type="curve" smooth="yes"/>
      <point x="723" y="727" type="line" smooth="yes"/>
      <point x="721" y="736"/>
      <point x="717" y="742"/>
      <point x="706" y="742" type="curve" smooth="yes"/>
      <point x="531" y="742" type="line" smooth="yes"/>
      <point x="522" y="742"/>
      <point x="520" y="741"/>
      <point x="519" y="731" type="curve" smooth="yes"/>
      <point x="459" y="299" type="line" smooth="yes"/>
      <point x="456" y="281"/>
      <point x="458" y="278"/>
    </contour>
  </outline>
</glyph>
<glyph name="increment" format="2">
  <advance width="700"/>
  <unicode hex="2206"/>
  <outline>
    <contour>
      <point x="-9" y="91" type="curve"/>
      <point x="-16" y="45" type="line"/>
      <point x="-20" y="18"/>
      <point x="-3" y="0"/>
      <point x="15" y="0" type="curve"/>
      <point x="630" y="0" type="line" smooth="yes"/>
      <point x="647" y="0"/>
      <point x="648" y="3"/>
      <point x="651" y="21" type="curve"/>
      <point x="660" y="87" type="line" smooth="yes"/>
      <point x="663" y="106"/>
      <point x="661" y="119"/>
      <point x="656" y="145" type="curve"/>
      <point x="533" y="712" type="line" smooth="yes"/>
      <point x="530" y="730"/>
      <point x="520" y="742"/>
      <point x="506" y="742" type="curve"/>
      <point x="321" y="742" type="line" smooth="yes"/>
      <point x="307" y="742"/>
      <point x="301" y="739"/>
      <point x="294" y="725" type="curve"/>
      <point x="8" y="153" type="line" smooth="yes"/>
      <point x="-3" y="128"/>
      <point x="-7" y="112"/>
    </contour>
    <contour>
      <point x="426" y="159" type="curve"/>
      <point x="232" y="159" type="line"/>
      <point x="219" y="159"/>
      <point x="217" y="160"/>
      <point x="223" y="175" type="curve"/>
      <point x="370" y="501" type="line" smooth="yes"/>
      <point x="378" y="522"/>
      <point x="389" y="533"/>
      <point x="392" y="512" type="curve"/>
      <point x="447" y="184" type="line" smooth="yes"/>
      <point x="448" y="171"/>
      <point x="437" y="159"/>
    </contour>
  </outline>
</glyph>
<glyph name="radical" format="2">
  <advance width="722"/>
  <unicode hex="221A"/>
  <outline>
    <contour>
      <point x="415" y="-158" type="curve"/>
      <point x="816" y="832" type="line"/>
      <point x="816" y="836"/>
      <point x="813" y="847"/>
      <point x="803" y="847" type="curve"/>
      <point x="658" y="847" type="line" smooth="yes"/>
      <point x="652" y="847"/>
      <point x="652" y="849"/>
      <point x="650" y="844" type="curve"/>
      <point x="337" y="33" type="line" smooth="yes"/>
      <point x="335" y="24"/>
      <point x="329" y="14"/>
      <point x="327" y="22" type="curve"/>
      <point x="250" y="369" type="line" smooth="yes"/>
      <point x="249" y="375"/>
      <point x="243" y="385"/>
      <point x="235" y="382" type="curve"/>
      <point x="15" y="308" type="line" smooth="yes"/>
      <point x="10" y="306"/>
      <point x="12" y="304"/>
      <point x="14" y="299" type="curve"/>
      <point x="35" y="213" type="line" smooth="yes"/>
      <point x="35" y="204"/>
      <point x="43" y="196"/>
      <point x="50" y="198" type="curve"/>
      <point x="116" y="221" type="line" smooth="yes"/>
      <point x="122" y="224"/>
      <point x="125" y="229"/>
      <point x="126" y="223" type="curve"/>
      <point x="210" y="-147" type="line" smooth="yes"/>
      <point x="211" y="-155"/>
      <point x="217" y="-165"/>
      <point x="228" y="-165" type="curve"/>
      <point x="402" y="-165" type="line" smooth="yes"/>
      <point x="411" y="-165"/>
      <point x="411" y="-166"/>
    </contour>
  </outline>
</glyph>
<glyph name="approxequal" format="2">
	<advance width="636"/>
	<unicode hex="2248"/>
	<outline>
		<contour>
			<point x="608" y="445" type="curve"/>
			<point x="608" y="445" type="line"/>
			<point x="614" y="459"/>
			<point x="615" y="472"/>
			<point x="610" y="482" type="curve"/>
			<point x="584" y="536" type="line" smooth="yes"/>
			<point x="578" y="550"/>
			<point x="569" y="562"/>
			<point x="557" y="554" type="curve"/>
			<point x="529" y="513"/>
			<point x="486" y="479"/>
			<point x="441" y="479" type="curve"/>
			<point x="382" y="479"/>
			<point x="353" y="550"/>
			<point x="261" y="550" type="curve"/>
			<point x="199" y="550"/>
			<point x="149" y="514"/>
			<point x="84" y="463" type="curve"/>
			<point x="74" y="448"/>
			<point x="74" y="440"/>
			<point x="77" y="431" type="curve"/>
			<point x="111" y="363" type="line" smooth="yes"/>
			<point x="114" y="355"/>
			<point x="122" y="346"/>
			<point x="131" y="348" type="curve"/>
			<point x="166" y="389"/>
			<point x="206" y="430"/>
			<point x="257" y="430" type="curve"/>
			<point x="320" y="430"/>
			<point x="356" y="358"/>
			<point x="444" y="358" type="curve"/>
			<point x="494" y="358"/>
			<point x="559" y="383"/>
		</contour>
		<contour>
			<point x="576" y="218" type="curve"/>
			<point x="576" y="218" type="line"/>
			<point x="582" y="232"/>
			<point x="583" y="245"/>
			<point x="579" y="255" type="curve"/>
			<point x="552" y="309" type="line" smooth="yes"/>
			<point x="546" y="323"/>
			<point x="536" y="335"/>
			<point x="525" y="327" type="curve"/>
			<point x="497" y="286"/>
			<point x="454" y="252"/>
			<point x="409" y="252" type="curve"/>
			<point x="350" y="252"/>
			<point x="321" y="323"/>
			<point x="229" y="323" type="curve"/>
			<point x="167" y="323"/>
			<point x="117" y="287"/>
			<point x="52" y="236" type="curve"/>
			<point x="42" y="221"/>
			<point x="42" y="213"/>
			<point x="45" y="204" type="curve"/>
			<point x="79" y="136" type="line" smooth="yes"/>
			<point x="80" y="128"/>
			<point x="90" y="119"/>
			<point x="99" y="121" type="curve"/>
			<point x="133" y="161"/>
			<point x="174" y="203"/>
			<point x="225" y="203" type="curve"/>
			<point x="288" y="203"/>
			<point x="324" y="131"/>
			<point x="412" y="131" type="curve"/>
			<point x="462" y="131"/>
			<point x="527" y="156"/>
		</contour>
	</outline>
</glyph>
<glyph name="four.dnom" format="2">
  <advance width="416"/>
  <outline>
    <contour>
      <point x="209" y="454" type="curve"/>
      <point x="209" y="454" type="line"/>
      <point x="-6" y="220" type="line"/>
      <point x="-21" y="201"/>
      <point x="-28" y="192"/>
      <point x="-29" y="183" type="curve" smooth="yes"/>
      <point x="-39" y="112" type="line" smooth="yes"/>
      <point x="-40" y="104"/>
      <point x="-37" y="100"/>
      <point x="-26" y="100" type="curve" smooth="yes"/>
      <point x="157" y="100" type="line" smooth="yes"/>
      <point x="162" y="100"/>
      <point x="163" y="99"/>
      <point x="162" y="95" type="curve"/>
      <point x="151" y="14" type="line" smooth="yes"/>
      <point x="150" y="4"/>
      <point x="155" y="0"/>
      <point x="168" y="0" type="curve" smooth="yes"/>
      <point x="276" y="0" type="line" smooth="yes"/>
      <point x="290" y="0"/>
      <point x="294" y="2"/>
      <point x="296" y="14" type="curve" smooth="yes"/>
      <point x="306" y="91" type="line"/>
      <point x="306" y="97"/>
      <point x="311" y="100"/>
      <point x="315" y="100" type="curve" smooth="yes"/>
      <point x="362" y="100" type="line" smooth="yes"/>
      <point x="373" y="100"/>
      <point x="375" y="102"/>
      <point x="376" y="110" type="curve" smooth="yes"/>
      <point x="387" y="184" type="line" smooth="yes"/>
      <point x="388" y="193"/>
      <point x="384" y="195"/>
      <point x="376" y="195" type="curve" smooth="yes"/>
      <point x="326" y="195" type="line" smooth="yes"/>
      <point x="322" y="195"/>
      <point x="321" y="196"/>
      <point x="321" y="199" type="curve"/>
      <point x="357" y="454" type="line"/>
      <point x="359" y="462"/>
      <point x="354" y="467"/>
      <point x="347" y="467" type="curve" smooth="yes"/>
      <point x="241" y="467" type="line" smooth="yes"/>
      <point x="224" y="467"/>
      <point x="220" y="465"/>
    </contour>
    <contour>
      <point x="170" y="195" type="curve" smooth="yes"/>
      <point x="85" y="195" type="line" smooth="yes"/>
      <point x="80" y="195"/>
      <point x="79" y="196"/>
      <point x="84" y="202" type="curve" smooth="yes"/>
      <point x="188" y="321" type="line" smooth="yes"/>
      <point x="195" y="329"/>
      <point x="198" y="330"/>
      <point x="196" y="321" type="curve"/>
      <point x="179" y="203" type="line"/>
      <point x="179" y="198"/>
      <point x="177" y="195"/>
    </contour>
  </outline>
</glyph>
<glyph name="four.numr" format="2">
  <advance width="416"/>
  <outline>
    <contour>
      <point x="248" y="730" type="curve"/>
      <point x="248" y="730" type="line"/>
      <point x="33" y="496" type="line"/>
      <point x="18" y="477"/>
      <point x="11" y="468"/>
      <point x="10" y="459" type="curve" smooth="yes"/>
      <point x="0" y="388" type="line" smooth="yes"/>
      <point x="-1" y="380"/>
      <point x="2" y="376"/>
      <point x="13" y="376" type="curve" smooth="yes"/>
      <point x="196" y="376" type="line" smooth="yes"/>
      <point x="201" y="376"/>
      <point x="202" y="375"/>
      <point x="201" y="371" type="curve"/>
      <point x="190" y="290" type="line" smooth="yes"/>
      <point x="189" y="280"/>
      <point x="194" y="276"/>
      <point x="207" y="276" type="curve" smooth="yes"/>
      <point x="315" y="276" type="line" smooth="yes"/>
      <point x="329" y="276"/>
      <point x="333" y="278"/>
      <point x="335" y="290" type="curve" smooth="yes"/>
      <point x="345" y="367" type="line"/>
      <point x="345" y="373"/>
      <point x="350" y="376"/>
      <point x="354" y="376" type="curve" smooth="yes"/>
      <point x="401" y="376" type="line" smooth="yes"/>
      <point x="412" y="376"/>
      <point x="414" y="378"/>
      <point x="415" y="386" type="curve" smooth="yes"/>
      <point x="426" y="460" type="line" smooth="yes"/>
      <point x="427" y="469"/>
      <point x="423" y="471"/>
      <point x="415" y="471" type="curve" smooth="yes"/>
      <point x="365" y="471" type="line" smooth="yes"/>
      <point x="361" y="471"/>
      <point x="360" y="472"/>
      <point x="360" y="475" type="curve"/>
      <point x="396" y="730" type="line"/>
      <point x="398" y="738"/>
      <point x="393" y="743"/>
      <point x="386" y="743" type="curve" smooth="yes"/>
      <point x="280" y="743" type="line" smooth="yes"/>
      <point x="263" y="743"/>
      <point x="259" y="741"/>
    </contour>
    <contour>
      <point x="209" y="471" type="curve" smooth="yes"/>
      <point x="124" y="471" type="line" smooth="yes"/>
      <point x="119" y="471"/>
      <point x="118" y="472"/>
      <point x="123" y="478" type="curve" smooth="yes"/>
      <point x="227" y="597" type="line" smooth="yes"/>
      <point x="234" y="605"/>
      <point x="237" y="606"/>
      <point x="235" y="597" type="curve"/>
      <point x="218" y="479" type="line"/>
      <point x="218" y="474"/>
      <point x="216" y="471"/>
    </contour>
  </outline>
</glyph>
<glyph name="nine.numr" format="2">
  <advance width="404"/>
  <outline>
    <contour>
      <point x="172" y="275" type="curve"/>
      <point x="172" y="275" type="line"/>
      <point x="323" y="275"/>
      <point x="420" y="408"/>
      <point x="420" y="563" type="curve" smooth="yes"/>
      <point x="420" y="677"/>
      <point x="352" y="752"/>
      <point x="235" y="752" type="curve" smooth="yes"/>
      <point x="125" y="752"/>
      <point x="23" y="685"/>
      <point x="23" y="583" type="curve" smooth="yes"/>
      <point x="23" y="508"/>
      <point x="83" y="457"/>
      <point x="175" y="457" type="curve" smooth="yes"/>
      <point x="208" y="457"/>
      <point x="230" y="462"/>
      <point x="257" y="472" type="curve"/>
      <point x="266" y="476"/>
      <point x="268" y="476"/>
      <point x="268" y="469" type="curve"/>
      <point x="259" y="409"/>
      <point x="222" y="372"/>
      <point x="176" y="372" type="curve" smooth="yes"/>
      <point x="149" y="372"/>
      <point x="137" y="386"/>
      <point x="129" y="408" type="curve" smooth="yes"/>
      <point x="125" y="418"/>
      <point x="119" y="422"/>
      <point x="111" y="420" type="curve" smooth="yes"/>
      <point x="22" y="394" type="line"/>
      <point x="17" y="392"/>
      <point x="14" y="389"/>
      <point x="15" y="383" type="curve" smooth="yes"/>
      <point x="20" y="340"/>
      <point x="74" y="275"/>
    </contour>
    <contour>
      <point x="210" y="547" type="curve"/>
      <point x="210" y="547" type="line"/>
      <point x="185" y="547"/>
      <point x="163" y="559"/>
      <point x="163" y="587" type="curve" smooth="yes"/>
      <point x="163" y="623"/>
      <point x="197" y="661"/>
      <point x="237" y="661" type="curve" smooth="yes"/>
      <point x="267" y="661"/>
      <point x="285" y="642"/>
      <point x="285" y="605" type="curve" smooth="yes"/>
      <point x="285" y="588"/>
      <point x="283" y="573"/>
      <point x="270" y="566" type="curve" smooth="yes"/>
      <point x="252" y="556"/>
      <point x="233" y="547"/>
    </contour>
  </outline>
</glyph>
<glyph name="one.numr" format="2">
  <advance width="299"/>
  <outline>
    <contour>
      <point x="273" y="379" type="curve"/>
      <point x="273" y="379" type="line"/>
      <point x="213" y="379" type="line" smooth="yes"/>
      <point x="209" y="379"/>
      <point x="207" y="380"/>
      <point x="208" y="385" type="curve"/>
      <point x="256" y="730" type="line"/>
      <point x="258" y="738"/>
      <point x="255" y="743"/>
      <point x="248" y="743" type="curve" smooth="yes"/>
      <point x="191" y="743" type="line" smooth="yes"/>
      <point x="179" y="743"/>
      <point x="173" y="741"/>
      <point x="158" y="735" type="curve"/>
      <point x="38" y="679" type="line" smooth="yes"/>
      <point x="29" y="675"/>
      <point x="28" y="674"/>
      <point x="26" y="663" type="curve" smooth="yes"/>
      <point x="17" y="603" type="line" smooth="yes"/>
      <point x="16" y="593"/>
      <point x="21" y="588"/>
      <point x="32" y="591" type="curve"/>
      <point x="88" y="603" type="line"/>
      <point x="95" y="604"/>
      <point x="96" y="603"/>
      <point x="95" y="599" type="curve"/>
      <point x="66" y="389" type="line" smooth="yes"/>
      <point x="65" y="382"/>
      <point x="63" y="379"/>
      <point x="57" y="379" type="curve" smooth="yes"/>
      <point x="-1" y="379" type="line" smooth="yes"/>
      <point x="-11" y="379"/>
      <point x="-13" y="377"/>
      <point x="-14" y="371" type="curve" smooth="yes"/>
      <point x="-25" y="288" type="line"/>
      <point x="-27" y="280"/>
      <point x="-25" y="276"/>
      <point x="-14" y="276" type="curve" smooth="yes"/>
      <point x="258" y="276" type="line" smooth="yes"/>
      <point x="268" y="276"/>
      <point x="271" y="279"/>
      <point x="272" y="286" type="curve" smooth="yes"/>
      <point x="283" y="368" type="line"/>
      <point x="285" y="377"/>
      <point x="282" y="379"/>
    </contour>
  </outline>
</glyph>
<glyph name="seven.dnom" format="2">
  <advance width="365"/>
  <outline>
    <contour>
      <point x="368" y="467" type="curve" smooth="yes"/>
      <point x="48" y="467" type="line" smooth="yes"/>
      <point x="37" y="467"/>
      <point x="33" y="465"/>
      <point x="31" y="457" type="curve" smooth="yes"/>
      <point x="9" y="370" type="line"/>
      <point x="7" y="360"/>
      <point x="9" y="353"/>
      <point x="22" y="353" type="curve" smooth="yes"/>
      <point x="211" y="353" type="line" smooth="yes"/>
      <point x="221" y="353"/>
      <point x="220" y="350"/>
      <point x="216" y="345" type="curve" smooth="yes"/>
      <point x="100" y="189"/>
      <point x="58" y="114"/>
      <point x="17" y="25" type="curve"/>
      <point x="13" y="11"/>
      <point x="19" y="0"/>
      <point x="31" y="0" type="curve" smooth="yes"/>
      <point x="163" y="0" type="line" smooth="yes"/>
      <point x="173" y="0"/>
      <point x="176" y="3"/>
      <point x="178" y="14" type="curve" smooth="yes"/>
      <point x="195" y="102"/>
      <point x="266" y="252"/>
      <point x="352" y="357" type="curve" smooth="yes"/>
      <point x="363" y="370"/>
      <point x="373" y="386"/>
      <point x="376" y="403" type="curve" smooth="yes"/>
      <point x="384" y="445" type="line" smooth="yes"/>
      <point x="386" y="455"/>
      <point x="384" y="467"/>
    </contour>
  </outline>
</glyph>
<glyph name="seven.numr" format="2">
  <advance width="365"/>
  <outline>
    <contour>
      <point x="406" y="742" type="curve" smooth="yes"/>
      <point x="86" y="742" type="line" smooth="yes"/>
      <point x="75" y="742"/>
      <point x="71" y="740"/>
      <point x="69" y="732" type="curve" smooth="yes"/>
      <point x="47" y="645" type="line"/>
      <point x="45" y="635"/>
      <point x="47" y="628"/>
      <point x="60" y="628" type="curve" smooth="yes"/>
      <point x="249" y="628" type="line" smooth="yes"/>
      <point x="259" y="628"/>
      <point x="258" y="625"/>
      <point x="254" y="620" type="curve" smooth="yes"/>
      <point x="138" y="464"/>
      <point x="96" y="389"/>
      <point x="55" y="300" type="curve"/>
      <point x="51" y="286"/>
      <point x="57" y="275"/>
      <point x="69" y="275" type="curve" smooth="yes"/>
      <point x="201" y="275" type="line" smooth="yes"/>
      <point x="211" y="275"/>
      <point x="214" y="278"/>
      <point x="216" y="289" type="curve" smooth="yes"/>
      <point x="233" y="377"/>
      <point x="304" y="527"/>
      <point x="390" y="632" type="curve" smooth="yes"/>
      <point x="401" y="645"/>
      <point x="411" y="661"/>
      <point x="414" y="678" type="curve" smooth="yes"/>
      <point x="422" y="720" type="line" smooth="yes"/>
      <point x="424" y="730"/>
      <point x="422" y="742"/>
    </contour>
  </outline>
</glyph>
<glyph name="six.dnom" format="2">
  <advance width="404"/>
  <outline>
    <contour>
      <point x="212" y="467" type="curve"/>
      <point x="212" y="467" type="line"/>
      <point x="88" y="467"/>
      <point x="-10" y="377"/>
      <point x="-32" y="223" type="curve" smooth="yes"/>
      <point x="-34" y="208"/>
      <point x="-35" y="193"/>
      <point x="-35" y="179" type="curve" smooth="yes"/>
      <point x="-35" y="65"/>
      <point x="33" y="-10"/>
      <point x="150" y="-10" type="curve" smooth="yes"/>
      <point x="260" y="-10"/>
      <point x="362" y="57"/>
      <point x="362" y="159" type="curve" smooth="yes"/>
      <point x="362" y="233"/>
      <point x="302" y="285"/>
      <point x="210" y="285" type="curve" smooth="yes"/>
      <point x="177" y="285"/>
      <point x="147" y="278"/>
      <point x="124" y="267" type="curve" smooth="yes"/>
      <point x="117" y="264"/>
      <point x="116" y="265"/>
      <point x="116" y="267" type="curve" smooth="yes"/>
      <point x="116" y="268"/>
      <point x="116" y="270"/>
      <point x="117" y="273" type="curve"/>
      <point x="125" y="331"/>
      <point x="163" y="370"/>
      <point x="209" y="370" type="curve" smooth="yes"/>
      <point x="236" y="370"/>
      <point x="245" y="357"/>
      <point x="256" y="337" type="curve" smooth="yes"/>
      <point x="263" y="325"/>
      <point x="266" y="320"/>
      <point x="271" y="321" type="curve"/>
      <point x="363" y="348" type="line"/>
      <point x="368" y="349"/>
      <point x="369" y="351"/>
      <point x="369" y="355" type="curve" smooth="yes"/>
      <point x="369" y="415"/>
      <point x="291" y="467"/>
    </contour>
    <contour>
      <point x="174" y="194" type="curve"/>
      <point x="174" y="194" type="line"/>
      <point x="199" y="194"/>
      <point x="222" y="182"/>
      <point x="222" y="155" type="curve" smooth="yes"/>
      <point x="222" y="118"/>
      <point x="188" y="81"/>
      <point x="148" y="81" type="curve" smooth="yes"/>
      <point x="118" y="81"/>
      <point x="100" y="100"/>
      <point x="100" y="137" type="curve" smooth="yes"/>
      <point x="100" y="155"/>
      <point x="102" y="169"/>
      <point x="112" y="176" type="curve"/>
      <point x="122" y="182"/>
      <point x="151" y="194"/>
    </contour>
  </outline>
</glyph>
<glyph name="six.numr" format="2">
  <advance width="404"/>
  <outline>
    <contour>
      <point x="252" y="752" type="curve"/>
      <point x="252" y="752" type="line"/>
      <point x="128" y="752"/>
      <point x="30" y="662"/>
      <point x="8" y="508" type="curve" smooth="yes"/>
      <point x="6" y="493"/>
      <point x="5" y="478"/>
      <point x="5" y="464" type="curve" smooth="yes"/>
      <point x="5" y="350"/>
      <point x="73" y="275"/>
      <point x="190" y="275" type="curve" smooth="yes"/>
      <point x="300" y="275"/>
      <point x="402" y="342"/>
      <point x="402" y="444" type="curve" smooth="yes"/>
      <point x="402" y="518"/>
      <point x="342" y="570"/>
      <point x="250" y="570" type="curve" smooth="yes"/>
      <point x="217" y="570"/>
      <point x="187" y="563"/>
      <point x="164" y="552" type="curve" smooth="yes"/>
      <point x="157" y="549"/>
      <point x="156" y="550"/>
      <point x="156" y="552" type="curve" smooth="yes"/>
      <point x="156" y="553"/>
      <point x="156" y="555"/>
      <point x="157" y="558" type="curve"/>
      <point x="165" y="616"/>
      <point x="203" y="655"/>
      <point x="249" y="655" type="curve" smooth="yes"/>
      <point x="276" y="655"/>
      <point x="285" y="642"/>
      <point x="296" y="622" type="curve" smooth="yes"/>
      <point x="303" y="610"/>
      <point x="306" y="605"/>
      <point x="311" y="606" type="curve"/>
      <point x="403" y="633" type="line"/>
      <point x="408" y="634"/>
      <point x="409" y="636"/>
      <point x="409" y="640" type="curve" smooth="yes"/>
      <point x="409" y="700"/>
      <point x="331" y="752"/>
    </contour>
    <contour>
      <point x="214" y="479" type="curve"/>
      <point x="214" y="479" type="line"/>
      <point x="239" y="479"/>
      <point x="262" y="467"/>
      <point x="262" y="440" type="curve" smooth="yes"/>
      <point x="262" y="403"/>
      <point x="228" y="366"/>
      <point x="188" y="366" type="curve" smooth="yes"/>
      <point x="158" y="366"/>
      <point x="140" y="385"/>
      <point x="140" y="422" type="curve" smooth="yes"/>
      <point x="140" y="440"/>
      <point x="142" y="454"/>
      <point x="152" y="461" type="curve"/>
      <point x="162" y="467"/>
      <point x="191" y="479"/>
    </contour>
  </outline>
</glyph>
<glyph name="three.dnom" format="2">
  <advance width="399"/>
  <outline>
    <contour>
      <point x="21" y="392" type="curve"/>
      <point x="21" y="392" type="line"/>
      <point x="80" y="329" type="line" smooth="yes"/>
      <point x="84" y="325"/>
      <point x="88" y="325"/>
      <point x="93" y="329" type="curve" smooth="yes"/>
      <point x="134" y="360"/>
      <point x="159" y="374"/>
      <point x="197" y="374" type="curve" smooth="yes"/>
      <point x="224" y="374"/>
      <point x="241" y="362"/>
      <point x="241" y="344" type="curve" smooth="yes"/>
      <point x="241" y="313"/>
      <point x="207" y="288"/>
      <point x="166" y="286" type="curve" smooth="yes"/>
      <point x="124" y="285" type="line" smooth="yes"/>
      <point x="116" y="285"/>
      <point x="113" y="284"/>
      <point x="112" y="279" type="curve"/>
      <point x="101" y="196" type="line"/>
      <point x="101" y="191"/>
      <point x="103" y="188"/>
      <point x="109" y="188" type="curve" smooth="yes"/>
      <point x="168" y="187" type="line" smooth="yes"/>
      <point x="204" y="186"/>
      <point x="226" y="169"/>
      <point x="226" y="146" type="curve" smooth="yes"/>
      <point x="226" y="113"/>
      <point x="193" y="89"/>
      <point x="151" y="89" type="curve" smooth="yes"/>
      <point x="108" y="89"/>
      <point x="82" y="105"/>
      <point x="48" y="143" type="curve"/>
      <point x="46" y="146"/>
      <point x="42" y="148"/>
      <point x="35" y="144" type="curve"/>
      <point x="-38" y="96" type="line" smooth="yes"/>
      <point x="-41" y="94"/>
      <point x="-40" y="89"/>
      <point x="-36" y="82" type="curve"/>
      <point x="-10" y="30"/>
      <point x="57" y="-9"/>
      <point x="146" y="-9" type="curve" smooth="yes"/>
      <point x="271" y="-9"/>
      <point x="365" y="35"/>
      <point x="365" y="144" type="curve" smooth="yes"/>
      <point x="365" y="187"/>
      <point x="338" y="224"/>
      <point x="290" y="238" type="curve"/>
      <point x="285" y="239"/>
      <point x="285" y="243"/>
      <point x="291" y="245" type="curve" smooth="yes"/>
      <point x="338" y="259"/>
      <point x="381" y="304"/>
      <point x="381" y="355" type="curve" smooth="yes"/>
      <point x="381" y="424"/>
      <point x="316" y="470"/>
      <point x="204" y="470" type="curve" smooth="yes"/>
      <point x="135" y="470"/>
      <point x="62" y="442"/>
      <point x="25" y="408" type="curve"/>
      <point x="18" y="403"/>
      <point x="17" y="396"/>
    </contour>
  </outline>
</glyph>
<glyph name="three.numr" format="2">
  <advance width="399"/>
  <outline>
    <contour>
      <point x="61" y="674" type="curve"/>
      <point x="61" y="674" type="line"/>
      <point x="120" y="611" type="line" smooth="yes"/>
      <point x="124" y="607"/>
      <point x="128" y="607"/>
      <point x="133" y="611" type="curve" smooth="yes"/>
      <point x="174" y="642"/>
      <point x="199" y="656"/>
      <point x="237" y="656" type="curve" smooth="yes"/>
      <point x="264" y="656"/>
      <point x="281" y="644"/>
      <point x="281" y="626" type="curve" smooth="yes"/>
      <point x="281" y="595"/>
      <point x="247" y="570"/>
      <point x="206" y="568" type="curve" smooth="yes"/>
      <point x="164" y="567" type="line" smooth="yes"/>
      <point x="156" y="567"/>
      <point x="153" y="566"/>
      <point x="152" y="561" type="curve"/>
      <point x="141" y="478" type="line"/>
      <point x="141" y="473"/>
      <point x="143" y="470"/>
      <point x="149" y="470" type="curve" smooth="yes"/>
      <point x="208" y="469" type="line" smooth="yes"/>
      <point x="244" y="468"/>
      <point x="266" y="451"/>
      <point x="266" y="428" type="curve" smooth="yes"/>
      <point x="266" y="395"/>
      <point x="233" y="371"/>
      <point x="191" y="371" type="curve" smooth="yes"/>
      <point x="148" y="371"/>
      <point x="122" y="387"/>
      <point x="88" y="425" type="curve"/>
      <point x="86" y="428"/>
      <point x="82" y="430"/>
      <point x="75" y="426" type="curve"/>
      <point x="2" y="378" type="line" smooth="yes"/>
      <point x="-1" y="376"/>
      <point x="0" y="371"/>
      <point x="4" y="364" type="curve"/>
      <point x="30" y="312"/>
      <point x="97" y="273"/>
      <point x="186" y="273" type="curve" smooth="yes"/>
      <point x="311" y="273"/>
      <point x="405" y="317"/>
      <point x="405" y="426" type="curve" smooth="yes"/>
      <point x="405" y="469"/>
      <point x="378" y="506"/>
      <point x="330" y="520" type="curve"/>
      <point x="325" y="521"/>
      <point x="325" y="525"/>
      <point x="331" y="527" type="curve" smooth="yes"/>
      <point x="378" y="541"/>
      <point x="421" y="586"/>
      <point x="421" y="637" type="curve" smooth="yes"/>
      <point x="421" y="706"/>
      <point x="356" y="752"/>
      <point x="244" y="752" type="curve" smooth="yes"/>
      <point x="175" y="752"/>
      <point x="102" y="724"/>
      <point x="65" y="690" type="curve"/>
      <point x="58" y="685"/>
      <point x="57" y="678"/>
    </contour>
  </outline>
</glyph>
<glyph name="two.dnom" format="2">
  <advance width="384"/>
  <outline>
    <contour>
      <point x="112" y="209" type="curve" smooth="yes"/>
      <point x="-6" y="121" type="line" smooth="yes"/>
      <point x="-44" y="93"/>
      <point x="-45" y="89"/>
      <point x="-47" y="82" type="curve"/>
      <point x="-56" y="19" type="line"/>
      <point x="-57" y="7"/>
      <point x="-51" y="0"/>
      <point x="-39" y="0" type="curve" smooth="yes"/>
      <point x="313" y="0" type="line" smooth="yes"/>
      <point x="324" y="0"/>
      <point x="326" y="3"/>
      <point x="328" y="10" type="curve"/>
      <point x="340" y="104" type="line" smooth="yes"/>
      <point x="341" y="113"/>
      <point x="336" y="116"/>
      <point x="327" y="116" type="curve" smooth="yes"/>
      <point x="156" y="116" type="line" smooth="yes"/>
      <point x="151" y="116"/>
      <point x="151" y="120"/>
      <point x="158" y="125" type="curve" smooth="yes"/>
      <point x="268" y="196" type="line" smooth="yes"/>
      <point x="333" y="237"/>
      <point x="368" y="274"/>
      <point x="368" y="340" type="curve" smooth="yes"/>
      <point x="368" y="419"/>
      <point x="305" y="473"/>
      <point x="197" y="473" type="curve" smooth="yes"/>
      <point x="116" y="473"/>
      <point x="44" y="435"/>
      <point x="-3" y="368" type="curve" smooth="yes"/>
      <point x="-13" y="355"/>
      <point x="-12" y="349"/>
      <point x="-8" y="347" type="curve" smooth="yes"/>
      <point x="82" y="297" type="line" smooth="yes"/>
      <point x="87" y="294"/>
      <point x="90" y="296"/>
      <point x="92" y="299" type="curve"/>
      <point x="118" y="345"/>
      <point x="151" y="371"/>
      <point x="186" y="371" type="curve" smooth="yes"/>
      <point x="218" y="371"/>
      <point x="230" y="356"/>
      <point x="230" y="331" type="curve" smooth="yes"/>
      <point x="230" y="303"/>
      <point x="209" y="281"/>
    </contour>
  </outline>
</glyph>
<glyph name="zero.dnom" format="2">
  <advance width="416"/>
  <outline>
    <contour>
      <point x="207" y="469" type="curve"/>
      <point x="207" y="469" type="line"/>
      <point x="89" y="469"/>
      <point x="-10" y="370"/>
      <point x="-29" y="234" type="curve" smooth="yes"/>
      <point x="-31" y="219"/>
      <point x="-33" y="204"/>
      <point x="-33" y="190" type="curve" smooth="yes"/>
      <point x="-33" y="72"/>
      <point x="38" y="-10"/>
      <point x="150" y="-10" type="curve" smooth="yes"/>
      <point x="269" y="-10"/>
      <point x="365" y="85"/>
      <point x="384" y="220" type="curve" smooth="yes"/>
      <point x="386" y="236"/>
      <point x="387" y="251"/>
      <point x="387" y="265" type="curve" smooth="yes"/>
      <point x="387" y="384"/>
      <point x="317" y="469"/>
    </contour>
    <contour>
      <point x="153" y="88" type="curve"/>
      <point x="153" y="88" type="line"/>
      <point x="122" y="88"/>
      <point x="108" y="106"/>
      <point x="108" y="153" type="curve" smooth="yes"/>
      <point x="108" y="170"/>
      <point x="110" y="193"/>
      <point x="113" y="220" type="curve" smooth="yes"/>
      <point x="128" y="327"/>
      <point x="155" y="372"/>
      <point x="203" y="372" type="curve" smooth="yes"/>
      <point x="233" y="372"/>
      <point x="247" y="353"/>
      <point x="247" y="304" type="curve" smooth="yes"/>
      <point x="247" y="286"/>
      <point x="245" y="262"/>
      <point x="241" y="233" type="curve" smooth="yes"/>
      <point x="227" y="128"/>
      <point x="202" y="88"/>
    </contour>
  </outline>
</glyph>
<glyph name="zero.numr" format="2">
  <advance width="416"/>
  <outline>
    <contour>
      <point x="247" y="753" type="curve"/>
      <point x="247" y="753" type="line"/>
      <point x="129" y="753"/>
      <point x="30" y="654"/>
      <point x="11" y="518" type="curve" smooth="yes"/>
      <point x="9" y="503"/>
      <point x="7" y="488"/>
      <point x="7" y="474" type="curve" smooth="yes"/>
      <point x="7" y="356"/>
      <point x="78" y="274"/>
      <point x="190" y="274" type="curve" smooth="yes"/>
      <point x="309" y="274"/>
      <point x="405" y="369"/>
      <point x="424" y="504" type="curve" smooth="yes"/>
      <point x="426" y="520"/>
      <point x="427" y="535"/>
      <point x="427" y="549" type="curve" smooth="yes"/>
      <point x="427" y="668"/>
      <point x="357" y="753"/>
    </contour>
    <contour>
      <point x="193" y="372" type="curve"/>
      <point x="193" y="372" type="line"/>
      <point x="162" y="372"/>
      <point x="148" y="390"/>
      <point x="148" y="437" type="curve" smooth="yes"/>
      <point x="148" y="454"/>
      <point x="150" y="477"/>
      <point x="153" y="504" type="curve" smooth="yes"/>
      <point x="168" y="611"/>
      <point x="195" y="656"/>
      <point x="243" y="656" type="curve" smooth="yes"/>
      <point x="273" y="656"/>
      <point x="287" y="637"/>
      <point x="287" y="588" type="curve" smooth="yes"/>
      <point x="287" y="570"/>
      <point x="285" y="546"/>
      <point x="281" y="517" type="curve" smooth="yes"/>
      <point x="267" y="412"/>
      <point x="242" y="372"/>
    </contour>
  </outline>
</glyph>
